<svg width="173" height="51" viewBox="0 0 173 51" fill="none" xmlns="http://www.w3.org/2000/svg">
<path d="M171.687 44.9792C171.687 45.6211 171.56 46.2567 171.314 46.8497C171.069 47.4426 170.708 47.9813 170.254 48.435C169.8 48.8886 169.26 49.2483 168.667 49.4935C168.074 49.7386 167.438 49.8645 166.796 49.8638H6.73633C5.43904 49.8652 4.19433 49.3513 3.27593 48.4353C2.35753 47.5193 1.84065 46.2762 1.83896 44.9792V6.02617C1.84065 4.72863 2.35733 3.4848 3.27554 2.56779C4.19376 1.65077 5.43845 1.13553 6.73633 1.13519H166.795C167.437 1.13519 168.073 1.26171 168.667 1.50752C169.26 1.75333 169.799 2.11362 170.253 2.5678C170.708 3.02199 171.068 3.56118 171.314 4.15457C171.559 4.74796 171.686 5.38393 171.686 6.02617L171.687 44.9792Z" fill="white"/>
<path d="M166.796 51H6.73635C5.13824 50.9997 3.60553 50.3656 2.47454 49.2368C1.34355 48.108 0.706654 46.5768 0.703613 44.9791L0.703613 6.02731C0.705977 4.42883 1.34245 2.89655 2.4734 1.76662C3.60436 0.636679 5.13744 0.00134918 6.73635 0L166.795 0C168.393 0.00202238 169.926 0.637569 171.057 1.76736C172.188 2.89715 172.824 4.42904 172.827 6.02731V44.9791C172.83 48.3001 170.119 51 166.796 51Z" fill="#A6A6A6"/>
<path d="M171.687 44.9792C171.687 45.6211 171.56 46.2567 171.314 46.8497C171.069 47.4426 170.708 47.9813 170.254 48.435C169.8 48.8886 169.26 49.2483 168.667 49.4935C168.074 49.7386 167.438 49.8645 166.796 49.8638H6.73633C5.43904 49.8652 4.19433 49.3513 3.27593 48.4353C2.35753 47.5193 1.84065 46.2762 1.83896 44.9792V6.02617C1.84065 4.72863 2.35733 3.4848 3.27554 2.56779C4.19376 1.65077 5.43845 1.13553 6.73633 1.13519H166.795C167.437 1.13519 168.073 1.26171 168.667 1.50752C169.26 1.75333 169.799 2.11362 170.253 2.5678C170.708 3.02199 171.068 3.56118 171.314 4.15457C171.559 4.74796 171.686 5.38393 171.686 6.02617L171.687 44.9792Z" fill="black"/>
<path d="M39.1376 25.2315C39.1006 21.121 42.5041 19.1213 42.6597 19.0282C40.7322 16.2186 37.7445 15.8347 36.6946 15.8041C34.1853 15.5401 31.7513 17.3052 30.4731 17.3052C29.1693 17.3052 27.2009 15.8296 25.0795 15.8729C22.3495 15.915 19.7956 17.4952 18.3949 19.949C15.5041 24.9522 17.6601 32.3046 20.4296 36.3487C21.815 38.3306 23.4338 40.5408 25.5527 40.463C27.6257 40.3788 28.4001 39.143 30.9017 39.143C33.3804 39.143 34.1075 40.463 36.2685 40.4132C38.4933 40.3788 39.894 38.4237 41.231 36.4252C42.832 34.1564 43.4749 31.9194 43.5004 31.8046C43.4494 31.7868 39.1809 30.1569 39.1376 25.2315ZM35.0554 13.1437C36.1703 11.7497 36.9332 9.85328 36.7214 7.92877C35.1077 8.00019 33.0895 9.0447 31.9274 10.4081C30.8992 11.6094 29.9807 13.5786 30.2179 15.4304C32.0307 15.5656 33.8919 14.516 35.0554 13.1437Z" fill="white"/>
<path d="M166.796 0H81.0631L114.643 51H166.796C168.394 50.9987 169.927 50.3637 171.058 49.2343C172.189 48.1049 172.825 46.5733 172.829 44.9753V6.02731C172.826 4.42894 172.189 2.89685 171.058 1.76699C169.927 0.637124 168.395 0.00168591 166.796 0V0Z" fill="url(#paint0_linear_105_950)"/>
<path d="M69.1635 40.1786H66.2664L64.6795 35.1933H59.1634L57.6517 40.1786H54.8311L60.2975 23.2063H63.6729L69.1635 40.1786ZM64.2011 33.1017L62.7659 28.6699C62.6141 28.2171 62.3284 27.1509 61.9099 25.4726H61.8589C61.6905 26.1944 61.4214 27.2606 61.0527 28.6699L59.6418 33.1017H64.2011ZM83.1935 33.909C83.1935 35.9904 82.6284 37.6356 81.4969 38.8433C80.484 39.9185 79.2249 40.4554 77.7234 40.4554C76.102 40.4554 74.936 39.8777 74.228 38.7196V45.141H71.5082V31.9628C71.5082 30.6556 71.4738 29.3152 71.4075 27.9404H73.7994L73.9512 29.8802H74.0022C74.9092 28.4186 76.2857 27.6878 78.1329 27.6878C79.577 27.6878 80.7825 28.2579 81.7469 29.3994C82.7101 30.5434 83.1935 32.0457 83.1935 33.909ZM80.4227 34.0085C80.4227 32.8173 80.1549 31.8353 79.6165 31.0611C79.0284 30.2564 78.2388 29.8534 77.2488 29.8534C76.5778 29.8534 75.968 30.0779 75.4233 30.5204C74.8773 30.9668 74.5201 31.5496 74.353 32.2715C74.2784 32.5414 74.236 32.8192 74.2267 33.0992V35.141C74.2267 36.0299 74.4997 36.7811 75.0457 37.3958C75.5917 38.008 76.301 38.3153 77.1736 38.3153C78.1979 38.3153 78.9953 37.9187 79.5655 37.1318C80.137 36.3424 80.4227 35.3017 80.4227 34.0085ZM97.2733 33.909C97.2733 35.9904 96.7082 37.6356 95.5767 38.8433C94.5625 39.9185 93.3047 40.4554 91.8019 40.4554C90.1805 40.4554 89.0145 39.8777 88.3065 38.7196V45.141H85.5867V31.9628C85.5867 30.6556 85.5523 29.3152 85.486 27.9404H87.8779L88.0297 29.8802H88.0807C88.9865 28.4186 90.3629 27.6878 92.2114 27.6878C93.6542 27.6878 94.8597 28.2579 95.8267 29.3994C96.7886 30.5434 97.2733 32.0457 97.2733 33.909ZM94.5013 34.0085C94.5013 32.8173 94.2321 31.8353 93.6937 31.0611C93.1056 30.2564 92.3186 29.8534 91.3286 29.8534C90.6576 29.8534 90.0478 30.0779 89.5006 30.5204C88.9546 30.9668 88.5986 31.5496 88.4315 32.2715C88.3486 32.6082 88.304 32.8824 88.304 33.0992V35.141C88.304 36.0299 88.5782 36.7811 89.1217 37.3958C89.6677 38.0067 90.377 38.3153 91.2521 38.3153C92.2777 38.3153 93.075 37.9187 93.644 37.1318C94.2155 36.3424 94.5013 35.3017 94.5013 34.0085ZM113.015 35.4178C113.015 36.8627 112.51 38.0373 111.506 38.9441C110.401 39.9338 108.859 40.4299 106.882 40.4299C105.055 40.4299 103.591 40.0779 102.486 39.3726L103.115 37.1063C104.307 37.8129 105.618 38.1649 107.044 38.1649C108.069 38.1649 108.867 37.9327 109.436 37.4723C110.006 37.0107 110.294 36.3934 110.294 35.6231C110.294 34.9331 110.056 34.3554 109.588 33.8848C109.117 33.4154 108.339 32.978 107.245 32.5763C104.273 31.468 102.786 29.847 102.786 27.7146C102.786 26.3219 103.311 25.1818 104.36 24.2903C105.408 23.4001 106.799 22.955 108.529 22.955C110.074 22.955 111.361 23.2241 112.383 23.761L111.7 25.9776C110.738 25.4573 109.653 25.1971 108.438 25.1971C107.479 25.1971 106.726 25.433 106.188 25.9024C105.735 26.3219 105.505 26.8334 105.505 27.4404C105.505 28.11 105.767 28.666 106.287 29.1022C106.739 29.5039 107.563 29.9414 108.755 30.4107C110.216 30.9999 111.291 31.6861 111.978 32.4742C112.671 33.2624 113.015 34.2457 113.015 35.4178ZM122.031 29.9809H119.033V35.9228C119.033 37.4341 119.561 38.1878 120.62 38.1878C121.106 38.1878 121.509 38.147 121.828 38.0616L121.903 40.1263C121.367 40.3266 120.662 40.4273 119.788 40.4273C118.714 40.4273 117.874 40.0996 117.268 39.444C116.665 38.7885 116.361 37.6904 116.361 36.1447V29.9758H114.576V27.9353H116.361V25.6945L119.033 24.8884V27.9353H122.031V29.9809ZM135.53 33.9587C135.53 35.8399 134.992 37.3843 133.918 38.5921C132.794 39.8356 131.299 40.4554 129.435 40.4554C127.636 40.4554 126.206 39.8598 125.139 38.6699C124.073 37.4774 123.54 35.9751 123.54 34.1628C123.54 32.2664 124.091 30.713 125.189 29.5052C126.29 28.2962 127.773 27.6917 129.636 27.6917C131.432 27.6917 132.875 28.2885 133.967 29.4797C135.011 30.6352 135.53 32.1273 135.53 33.9587ZM132.711 34.0212C132.711 32.9002 132.468 31.9386 131.982 31.1338C131.412 30.162 130.596 29.6761 129.538 29.6761C128.449 29.6761 127.613 30.162 127.044 31.1338C126.557 31.9386 126.314 32.9168 126.314 34.0723C126.314 35.1946 126.557 36.1587 127.044 36.9609C127.632 37.9327 128.452 38.4187 129.515 38.4187C130.555 38.4187 131.37 37.9225 131.959 36.9367C132.459 36.1128 132.711 35.1448 132.711 34.0212ZM144.374 30.3317C144.091 30.2806 143.805 30.2554 143.517 30.2564C142.56 30.2564 141.82 30.6161 141.3 31.3405C140.848 31.9781 140.621 32.7841 140.621 33.7572V40.1786H137.901V31.7945C137.904 30.5098 137.878 29.2252 137.822 27.9416H140.191L140.291 30.2832H140.366C140.654 29.4784 141.106 28.8293 141.726 28.3434C142.293 27.9188 142.983 27.6889 143.692 27.6878C143.943 27.6878 144.17 27.7057 144.372 27.7376L144.374 30.3317ZM156.538 33.4805C156.545 33.8938 156.512 34.3069 156.439 34.7138H148.279C148.31 35.9228 148.705 36.8487 149.463 37.4864C150.151 38.0552 151.04 38.3409 152.132 38.3409C153.34 38.3409 154.442 38.1496 155.433 37.7631L155.859 39.6494C154.701 40.1544 153.333 40.4056 151.755 40.4056C149.857 40.4056 148.367 39.847 147.283 38.7324C146.201 37.6165 145.659 36.1166 145.659 34.2381C145.659 32.3939 146.163 30.8571 147.172 29.6315C148.228 28.323 149.656 27.6687 151.452 27.6687C153.216 27.6687 154.552 28.323 155.459 29.6315C156.177 30.6683 156.538 31.9539 156.538 33.4805ZM153.945 32.7752C153.964 31.9679 153.785 31.2729 153.416 30.6849C152.946 29.9274 152.221 29.5499 151.25 29.5499C150.361 29.5499 149.637 29.9184 149.085 30.6581C148.633 31.2461 148.363 31.9526 148.28 32.7727L153.945 32.7752Z" fill="white"/>
<path d="M58.3789 17.2057C57.6224 17.2057 56.968 17.1688 56.4232 17.1063V8.90066C57.1851 8.783 57.955 8.72501 58.7259 8.72721C61.8449 8.72721 63.2814 10.2615 63.2814 12.7624C63.2814 15.6473 61.5847 17.2057 58.3789 17.2057ZM58.8356 9.77938C58.4146 9.77938 58.0561 9.80488 57.7589 9.8661V16.1038C57.9196 16.1294 58.2283 16.1408 58.6621 16.1408C60.7057 16.1408 61.8692 14.9777 61.8692 12.7994C61.8692 10.857 60.8167 9.77938 58.8356 9.77938ZM67.7577 17.2682C65.9998 17.2682 64.8607 15.9559 64.8607 14.1742C64.8607 12.3173 66.0241 10.9935 67.8572 10.9935C69.5896 10.9935 70.7543 12.2434 70.7543 14.076C70.7543 15.9559 69.5539 17.2682 67.7577 17.2682ZM67.8088 11.9704C66.8431 11.9704 66.2244 12.8734 66.2244 14.136C66.2244 15.3743 66.8558 16.2773 67.796 16.2773C68.7362 16.2773 69.3677 15.3119 69.3677 14.1105C69.3677 12.8861 68.749 11.9704 67.8088 11.9704ZM80.7787 11.1172L78.8971 17.1318H77.6711L76.8917 14.5199C76.6979 13.881 76.5365 13.2327 76.4082 12.5775H76.3827C76.2845 13.233 76.0982 13.8898 75.9005 14.5199L75.0713 17.1318H73.8326L72.0619 11.1172H73.4358L74.1171 13.9766C74.2778 14.6576 74.413 15.3004 74.5253 15.9074H74.5508C74.649 15.4011 74.8098 14.7686 75.0458 13.9893L75.9005 11.1185H76.9899L77.8076 13.9281C78.0054 14.6091 78.1661 15.2774 78.2911 15.9087H78.3268C78.4136 15.2902 78.5501 14.6334 78.7351 13.9281L79.466 11.1185L80.7787 11.1172ZM87.7057 17.1318H86.3688V13.6781C86.3688 12.6145 85.9606 12.0814 85.1556 12.0814C84.3634 12.0814 83.8187 12.7624 83.8187 13.5544V17.1318H82.4818V12.8364C82.4818 12.3046 82.469 11.7345 82.432 11.1159H83.6082L83.6707 12.0444H83.7077C84.0674 11.4016 84.7971 10.9935 85.6148 10.9935C86.8778 10.9935 87.707 11.959 87.707 13.5302L87.7057 17.1318ZM91.3924 17.1318H90.0542V8.35736H91.3924V17.1318ZM96.2669 17.2682C94.5102 17.2682 93.3698 15.9559 93.3698 14.1742C93.3698 12.3173 94.5332 10.9935 96.3651 10.9935C98.0987 10.9935 99.2622 12.2434 99.2622 14.076C99.2634 15.9559 98.0617 17.2682 96.2669 17.2682ZM96.3166 11.9704C95.3509 11.9704 94.7322 12.8734 94.7322 14.136C94.7322 15.3743 95.3649 16.2773 96.3026 16.2773C97.244 16.2773 97.8742 15.3119 97.8742 14.1105C97.8755 12.8861 97.2581 11.9704 96.3166 11.9704ZM104.533 17.1318L104.436 16.4393H104.401C103.992 16.9966 103.397 17.2682 102.641 17.2682C101.564 17.2682 100.798 16.5132 100.798 15.4981C100.798 14.0135 102.085 13.2458 104.314 13.2458V13.1348C104.314 12.3428 103.894 11.9462 103.065 11.9462C102.472 11.9462 101.951 12.0954 101.493 12.3926L101.222 11.5139C101.778 11.167 102.472 10.9935 103.287 10.9935C104.859 10.9935 105.652 11.8225 105.652 13.4817V15.697C105.652 16.3041 105.679 16.7747 105.739 17.1331L104.533 17.1318ZM104.35 14.136C102.865 14.136 102.12 14.4956 102.12 15.3488C102.12 15.9801 102.504 16.2888 103.037 16.2888C103.717 16.2888 104.35 15.7697 104.35 15.0644V14.136ZM112.144 17.1318L112.082 16.1663H112.045C111.661 16.8958 111.015 17.2682 110.113 17.2682C108.663 17.2682 107.589 15.9929 107.589 14.1985C107.589 12.3173 108.702 10.9922 110.223 10.9922C111.028 10.9922 111.598 11.2639 111.92 11.8097H111.946V8.35736H113.285V15.5108C113.285 16.0924 113.299 16.6369 113.334 17.1318H112.144ZM111.946 13.5927C111.946 12.7509 111.389 12.0329 110.538 12.0329C109.547 12.0329 108.941 12.9116 108.941 14.1487C108.941 15.3616 109.57 16.1918 110.511 16.1918C111.352 16.1918 111.946 15.4611 111.946 14.5951V13.5927ZM121.769 17.2682C120.013 17.2682 118.873 15.9559 118.873 14.1742C118.873 12.3173 120.037 10.9935 121.869 10.9935C123.602 10.9935 124.766 12.2434 124.766 14.076C124.767 15.9559 123.567 17.2682 121.769 17.2682ZM121.819 11.9704C120.854 11.9704 120.236 12.8734 120.236 14.136C120.236 15.3743 120.867 16.2773 121.806 16.2773C122.748 16.2773 123.378 15.3119 123.378 14.1105C123.38 12.8861 122.762 11.9704 121.819 11.9704ZM131.956 17.1318H130.617V13.6781C130.617 12.6145 130.209 12.0814 129.404 12.0814C128.612 12.0814 128.069 12.7624 128.069 13.5544V17.1318H126.73V12.8364C126.73 12.3046 126.718 11.7345 126.681 11.1159H127.857L127.919 12.0444H127.956C128.315 11.4016 129.046 10.9922 129.862 10.9922C131.125 10.9922 131.956 11.9577 131.956 13.5289V17.1318ZM140.95 12.1196H139.48V15.0402C139.48 15.7837 139.737 16.1549 140.258 16.1549C140.494 16.1549 140.691 16.1294 140.851 16.0924L140.888 17.1075C140.629 17.207 140.282 17.2568 139.851 17.2568C138.797 17.2568 138.167 16.6752 138.167 15.1524V12.1196H137.289V11.1172H138.167V10.0153L139.48 9.61868V11.1159H140.95V12.1196ZM148.028 17.1318H146.692V13.7036C146.692 12.6272 146.285 12.0827 145.479 12.0827C144.786 12.0827 144.141 12.5533 144.141 13.506V17.1318H142.805V8.35736H144.141V11.9704H144.168C144.589 11.3149 145.198 10.9922 145.977 10.9922C147.25 10.9922 148.028 11.9819 148.028 13.5544V17.1318ZM155.279 14.4459H151.267C151.292 15.5848 152.046 16.2276 153.163 16.2276C153.756 16.2276 154.302 16.1281 154.784 15.9432L154.992 16.8716C154.423 17.119 153.753 17.2427 152.974 17.2427C151.092 17.2427 149.978 16.0541 149.978 14.2112C149.978 12.3671 151.119 10.9808 152.823 10.9808C154.36 10.9808 155.325 12.1196 155.325 13.8401C155.334 14.0431 155.318 14.2465 155.279 14.4459ZM154.053 13.4932C154.053 12.5647 153.585 11.9092 152.73 11.9092C151.962 11.9092 151.355 12.5775 151.268 13.4932H154.053Z" fill="white"/>
<defs>
<linearGradient id="paint0_linear_105_950" x1="126.944" y1="51.1354" x2="126.944" y2="-132.795" gradientUnits="userSpaceOnUse">
<stop stop-color="#1A1A1A" stop-opacity="0.1"/>
<stop offset="0.123" stop-color="#212121" stop-opacity="0.151"/>
<stop offset="0.308" stop-color="#353535" stop-opacity="0.227"/>
<stop offset="0.532" stop-color="#575757" stop-opacity="0.318"/>
<stop offset="0.783" stop-color="#858585" stop-opacity="0.421"/>
<stop offset="1" stop-color="#B3B3B3" stop-opacity="0.51"/>
</linearGradient>
</defs>
</svg>
