<svg width="113" height="118" viewBox="0 0 113 118" fill="none" xmlns="http://www.w3.org/2000/svg">
<path d="M107.552 60.3376C107.078 59.3692 107.078 58.2587 107.552 57.2906L111.944 48.3158C114.389 43.3187 112.452 37.3627 107.533 34.7559L98.6983 30.0738C97.7451 29.5688 97.0917 28.6701 96.9052 27.6089L95.1773 17.7694C94.2152 12.291 89.1417 8.60969 83.6291 9.38873L73.7265 10.7878C72.6576 10.9386 71.6007 10.5953 70.8254 9.84615L63.6374 2.90066C59.635 -0.966772 53.365 -0.967002 49.3628 2.90066L42.1746 9.84684C41.399 10.5962 40.3421 10.9388 39.2735 10.7885L29.371 9.38942C23.8565 8.60992 18.7848 12.2917 17.8227 17.7701L16.0949 27.6091C15.9083 28.6705 15.2549 29.5691 14.3019 30.0743L5.46731 34.7563C0.548342 37.363 -1.38925 43.3194 1.0562 48.3165L5.44822 57.291C5.92203 58.2594 5.92203 59.3699 5.44822 60.3381L1.05597 69.3126C-1.38948 74.3097 0.548112 80.2657 5.46708 82.8725L14.3017 87.5546C15.2549 88.0596 15.9083 88.9583 16.0949 90.0195L17.8227 99.859C18.6985 104.846 22.9799 108.344 27.9005 108.343C28.3851 108.343 28.8769 108.309 29.3712 108.239L39.2737 106.84C40.3417 106.689 41.3992 107.033 42.1748 107.782L49.3628 114.727C51.3644 116.661 53.9317 117.628 56.5 117.628C59.0676 117.628 61.6366 116.661 63.6372 114.727L70.8254 107.782C71.601 107.033 72.6581 106.691 73.7265 106.84L83.6291 108.239C89.1442 109.019 94.2152 105.337 95.1773 99.8588L96.9054 90.0197C97.0919 88.9583 97.7454 88.0598 98.6983 87.5546L107.533 82.8725C112.452 80.2659 114.389 74.3094 111.944 69.3124L107.552 60.3376Z" fill="#943622"/>
<path d="M27.7747 58.129C25.8501 58.129 24.3374 57.6112 23.2364 56.5755C22.1437 55.5398 21.5973 54.0189 21.5973 52.0128V51.7681C21.5973 49.762 22.1559 48.2411 23.2731 47.2054C24.3904 46.1616 25.9154 45.6397 27.8481 45.6397C28.8756 45.6397 29.7523 45.7783 30.4781 46.0556C31.2039 46.3247 31.791 46.712 32.2396 47.2176C32.6881 47.7233 33.0021 48.3308 33.1815 49.0403H34.2702L33.3038 51.8048C33.2712 51.0627 33.0755 50.443 32.7166 49.9455C32.3578 49.4399 31.8644 49.0607 31.2365 48.8079C30.6167 48.5469 29.8828 48.4164 29.0347 48.4164C27.8196 48.4164 26.8654 48.6978 26.1722 49.2605C25.4872 49.8232 25.1447 50.6468 25.1447 51.7314V51.9639C25.1447 53.0403 25.4832 53.8599 26.16 54.4226C26.8369 54.9853 27.7869 55.2666 29.0102 55.2666C29.7523 55.2666 30.421 55.1525 31.0163 54.9241C31.6116 54.6876 32.1172 54.3696 32.5332 53.97C32.9491 53.5622 33.2426 53.1056 33.4139 52.6L34.3558 54.7406H33.2182C33.0551 55.3604 32.7574 55.9272 32.3252 56.441C31.893 56.9547 31.3017 57.3666 30.5515 57.6764C29.8094 57.9782 28.8838 58.129 27.7747 58.129ZM36.7411 57.7621H33.2304L33.365 54.3125L33.3038 53.5174V50.0556L33.316 49.4684L33.2549 46.0311V41.6519H36.7411V57.7621Z" fill="#FFC127"/>
<path d="M45.8624 58.1902C43.2609 58.1902 41.316 57.6561 40.0275 56.5877C38.7471 55.5194 38.107 53.9945 38.107 52.0128V51.7559C38.107 49.7987 38.7268 48.2778 39.9663 47.1932C41.2059 46.1086 42.9796 45.5663 45.2875 45.5663C46.8695 45.5663 48.1866 45.8068 49.2386 46.288C50.2987 46.761 51.0938 47.4297 51.6239 48.2941C52.1621 49.1585 52.4312 50.1698 52.4312 51.3278V51.4501C52.4312 51.7029 52.419 51.9639 52.3945 52.233C52.3701 52.4939 52.3375 52.7223 52.2967 52.918H49.0551C49.0958 52.657 49.1244 52.3675 49.1407 52.0495C49.157 51.7314 49.1652 51.446 49.1652 51.1932C49.1652 50.549 49.0224 49.9985 48.737 49.5418C48.4516 49.0851 48.0194 48.7345 47.4404 48.4898C46.8695 48.2452 46.1519 48.1229 45.2875 48.1229C44.0153 48.1229 43.0611 48.4042 42.425 48.9669C41.7971 49.5214 41.4831 50.2839 41.4831 51.2544V51.5847L41.4954 51.8782V52.4165C41.4954 52.8161 41.5647 53.2034 41.7033 53.5786C41.8501 53.9455 42.1029 54.2758 42.4617 54.5694C42.8206 54.8548 43.3221 55.0831 43.9663 55.2544C44.6106 55.4175 45.4342 55.4991 46.4373 55.4991C47.473 55.4991 48.472 55.393 49.4343 55.181C50.3966 54.9608 51.3181 54.655 52.1988 54.2636L51.8441 56.9058C51.0938 57.3054 50.2212 57.6194 49.2263 57.8477C48.2314 58.076 47.1101 58.1902 45.8624 58.1902ZM51.6239 52.918H39.6972V50.7039H51.6239V52.918Z" fill="#FFC127"/>
<path d="M66.7408 57.7621H63.2545L63.3769 54.4226L63.3279 53.8844V51.2177L63.3157 50.7161C63.3157 49.917 63.0099 49.3094 62.3982 48.8935C61.7948 48.4776 60.8325 48.2696 59.5114 48.2696C58.3534 48.2696 57.2891 48.4042 56.3187 48.6733C55.3482 48.9424 54.4471 49.2482 53.6153 49.5908L53.9823 46.9118C54.4553 46.6998 54.9935 46.4959 55.597 46.3002C56.2086 46.0963 56.8855 45.9332 57.6276 45.8109C58.3778 45.6804 59.1933 45.6152 60.0741 45.6152C61.3707 45.6152 62.4472 45.7579 63.3034 46.0433C64.1679 46.3288 64.8488 46.7243 65.3463 47.2299C65.8519 47.7273 66.2107 48.3063 66.4227 48.9669C66.6348 49.6275 66.7408 50.3329 66.7408 51.0831V57.7621ZM57.7377 58.129C56.1964 58.129 55.0057 57.8232 54.1658 57.2116C53.3258 56.5918 52.9058 55.7274 52.9058 54.6183V54.496C52.9058 53.1993 53.3992 52.2697 54.386 51.707C55.3809 51.1443 56.8528 50.7936 58.8019 50.655L63.597 50.3002L63.6704 52.3186L59.0465 52.71C58.0435 52.7916 57.3421 52.9343 56.9426 53.1382C56.5511 53.3421 56.3554 53.6723 56.3554 54.129V54.2024C56.3554 54.6183 56.5511 54.9404 56.9426 55.1688C57.3421 55.3971 57.9497 55.5113 58.7652 55.5113C59.6296 55.5113 60.3758 55.3971 61.0037 55.1688C61.6317 54.9404 62.1454 54.6387 62.545 54.2636C62.9446 53.8803 63.226 53.4685 63.3891 53.0281L63.9518 54.814H63.2423C63.071 55.4094 62.7775 55.9598 62.3615 56.4654C61.9456 56.9629 61.3626 57.3666 60.6123 57.6764C59.8702 57.9782 58.912 58.129 57.7377 58.129Z" fill="#FFC127"/>
<path d="M72.0629 57.7621H68.5522V41.6519H72.0629V57.7621Z" fill="#FFC127"/>
<path d="M45.1323 75.7889H41.6216V69.795C41.6216 69.2078 41.5401 68.6696 41.377 68.1803C41.2139 67.691 40.9244 67.2995 40.5085 67.006C40.0926 66.7042 39.5013 66.5534 38.7347 66.5534C38.066 66.5534 37.487 66.6675 36.9977 66.8959C36.5166 67.1242 36.1211 67.43 35.8112 67.8133C35.5094 68.1884 35.2811 68.6125 35.1262 69.0855L34.7347 67.0794H35.1017C35.2974 66.4677 35.591 65.905 35.9824 65.3913C36.382 64.8694 36.9243 64.4534 37.6094 64.1436C38.2944 63.8255 39.1466 63.6665 40.1659 63.6665C41.324 63.6665 42.2659 63.8826 42.9917 64.3148C43.7175 64.7389 44.2557 65.3587 44.6063 66.1742C44.957 66.9815 45.1323 67.9683 45.1323 69.1344V75.7889ZM25.3646 75.7889H21.8539V64.0457H25.3646L25.2301 67.5075L25.3646 68.0702V75.7889ZM35.2485 75.7889H31.7377V69.795C31.7377 69.1834 31.6521 68.6329 31.4809 68.1436C31.3096 67.6543 31.016 67.2669 30.6001 66.9815C30.1842 66.6961 29.6052 66.5534 28.8631 66.5534C28.1944 66.5534 27.6154 66.6675 27.1261 66.8959C26.6368 67.1242 26.2372 67.4341 25.9273 67.8255C25.6256 68.2088 25.3972 68.637 25.2423 69.11L24.8508 67.0671H25.3768C25.5318 66.4473 25.805 65.8806 26.1964 65.3668C26.596 64.853 27.1342 64.4412 27.8111 64.1313C28.488 63.8214 29.3198 63.6665 30.3065 63.6665C31.7663 63.6665 32.8835 64.0172 33.6583 64.7185C34.4411 65.4198 34.9223 66.4188 35.1017 67.7154C35.1343 67.8949 35.1669 68.115 35.1995 68.376C35.2322 68.6288 35.2485 68.849 35.2485 69.0366V75.7889Z" fill="#FFC127"/>
<path d="M61.4962 75.7889H58.0099L58.1323 72.4494L58.0833 71.9112V69.2445L58.0711 68.743C58.0711 67.9438 57.7653 67.3362 57.1537 66.9203C56.5502 66.5044 55.5879 66.2965 54.2668 66.2965C53.1088 66.2965 52.0445 66.431 51.0741 66.7002C50.1036 66.9693 49.2025 67.2751 48.3707 67.6176L48.7377 64.9387C49.2107 64.7266 49.7489 64.5228 50.3524 64.327C50.964 64.1232 51.6409 63.9601 52.383 63.8377C53.1332 63.7073 53.9487 63.642 54.8295 63.642C56.1261 63.642 57.2026 63.7847 58.0589 64.0702C58.9233 64.3556 59.6042 64.7511 60.1017 65.2567C60.6073 65.7542 60.9661 66.3332 61.1782 66.9937C61.3902 67.6543 61.4962 68.3597 61.4962 69.11V75.7889ZM52.4931 76.1559C50.9518 76.1559 49.7611 75.8501 48.9212 75.2384C48.0812 74.6187 47.6612 73.7542 47.6612 72.6452V72.5228C47.6612 71.2262 48.1546 70.2965 49.1414 69.7338C50.1363 69.1711 51.6082 68.8205 53.5573 68.6818L58.3524 68.3271L58.4258 70.3454L53.8019 70.7369C52.7989 70.8184 52.0975 70.9611 51.698 71.165C51.3065 71.3689 51.1108 71.6992 51.1108 72.1559V72.2292C51.1108 72.6452 51.3065 72.9673 51.698 73.1956C52.0975 73.424 52.7051 73.5381 53.5206 73.5381C54.385 73.5381 55.1312 73.424 55.7591 73.1956C56.3871 72.9673 56.9008 72.6655 57.3004 72.2904C57.7 71.9071 57.9814 71.4953 58.1445 71.0549L58.7072 72.8409H57.9977C57.8264 73.4362 57.5329 73.9866 57.117 74.4923C56.701 74.9897 56.118 75.3934 55.3677 75.7033C54.6256 76.005 53.6674 76.1559 52.4931 76.1559Z" fill="#FFC127"/>
<path d="M70.6977 76.1192C69.3358 76.1192 68.2634 75.9316 67.4806 75.5565C66.6977 75.1732 66.1391 74.6064 65.8047 73.8562C65.4704 73.0978 65.3032 72.1599 65.3032 71.0427V65.8316H68.7772V70.6513C68.7772 71.532 68.9852 72.1844 69.4011 72.6085C69.8251 73.0244 70.5958 73.2323 71.713 73.2323C72.3573 73.2323 72.9974 73.163 73.6335 73.0244C74.2696 72.8857 74.8445 72.6982 75.3583 72.4617L75.0158 75.3118C74.4531 75.5646 73.8048 75.7604 73.0708 75.899C72.3369 76.0458 71.5458 76.1192 70.6977 76.1192ZM74.9669 66.8469H63.0035V64.168H75.3216L74.9669 66.8469ZM68.6916 64.4616H65.3643L65.3521 61.0243L68.8139 60.7429L68.6916 64.4616Z" fill="#FFC127"/>
<path d="M84.6156 76.217C82.0142 76.217 80.0692 75.6829 78.7807 74.6146C77.5004 73.5463 76.8602 72.0213 76.8602 70.0396V69.7827C76.8602 67.8255 77.48 66.3046 78.7196 65.22C79.9591 64.1354 81.7328 63.5931 84.0407 63.5931C85.6228 63.5931 86.9398 63.8337 87.9918 64.3148C89.052 64.7878 89.8471 65.4565 90.3771 66.3209C90.9154 67.1854 91.1845 68.1966 91.1845 69.3546V69.4769C91.1845 69.7297 91.1723 69.9907 91.1478 70.2598C91.1233 70.5208 91.0907 70.7491 91.0499 70.9448H87.8083C87.8491 70.6839 87.8776 70.3944 87.8939 70.0763C87.9103 69.7583 87.9184 69.4729 87.9184 69.22C87.9184 68.5758 87.7757 68.0253 87.4903 67.5687C87.2048 67.112 86.7726 66.7613 86.1936 66.5167C85.6228 66.272 84.9051 66.1497 84.0407 66.1497C82.7685 66.1497 81.8144 66.431 81.1783 66.9937C80.5504 67.5483 80.2364 68.3108 80.2364 69.2812V69.6115L80.2486 69.9051V70.4433C80.2486 70.8429 80.3179 71.2303 80.4566 71.6054C80.6034 71.9724 80.8562 72.3026 81.215 72.5962C81.5738 72.8816 82.0754 73.11 82.7196 73.2812C83.3638 73.4443 84.1875 73.5259 85.1906 73.5259C86.2262 73.5259 87.2252 73.4199 88.1875 73.2078C89.1498 72.9877 90.0713 72.6818 90.9521 72.2904L90.5973 74.9326C89.8471 75.3322 88.9745 75.6462 87.9796 75.8745C86.9847 76.1029 85.8633 76.217 84.6156 76.217ZM90.3771 70.9448H78.4504V68.7307H90.3771V70.9448Z" fill="#FFC127"/>
<path d="M90.0736 50.58C90.0105 50.451 90.0105 50.303 90.0736 50.1739L90.6582 48.978C90.9837 48.312 90.7258 47.5183 90.0711 47.1709L88.8951 46.547C88.7683 46.4797 88.6813 46.3599 88.6565 46.2185L88.4265 44.9073C88.2984 44.1772 87.6231 43.6866 86.8893 43.7905L85.5712 43.9769C85.429 43.997 85.2883 43.9513 85.1851 43.8514L84.2283 42.9259C83.6956 42.4105 82.861 42.4104 82.3283 42.9259L81.3715 43.8515C81.2683 43.9514 81.1276 43.997 80.9853 43.977L79.6673 43.7906C78.9332 43.6867 78.2582 44.1773 78.1301 44.9074L77.9001 46.2185C77.8753 46.36 77.7883 46.4797 77.6615 46.5471L76.4855 47.171C75.8308 47.5184 75.5729 48.3121 75.8984 48.978L76.483 50.174C76.5461 50.3031 76.5461 50.451 76.483 50.5801L75.8984 51.776C75.5729 52.4419 75.8308 53.2356 76.4855 53.583L77.6615 54.207C77.7883 54.2743 77.8753 54.394 77.9001 54.5355L78.1301 55.8467C78.2467 56.5113 78.8166 56.9774 79.4715 56.9773C79.536 56.9773 79.6015 56.9728 79.6673 56.9635L80.9854 56.777C81.1275 56.7569 81.2683 56.8027 81.3715 56.9025L82.3283 57.8281C82.5947 58.0858 82.9364 58.2146 83.2783 58.2146C83.6201 58.2146 83.962 58.0857 84.2283 57.8281L85.1851 56.9025C85.2883 56.8027 85.429 56.7571 85.5712 56.777L86.8893 56.9635C87.6234 57.0673 88.2984 56.5767 88.4265 55.8467L88.6565 54.5355C88.6813 54.394 88.7683 54.2743 88.8951 54.207L90.0711 53.583C90.7258 53.2357 90.9837 52.4419 90.6582 51.776L90.0736 50.58ZM81.4701 46.3086C82.384 46.3086 83.1276 47.0522 83.1276 47.9661C83.1276 48.88 82.384 49.6236 81.4701 49.6236C80.5562 49.6236 79.8126 48.88 79.8126 47.9661C79.8126 47.0522 80.5562 46.3086 81.4701 46.3086ZM80.6146 53.6799C80.5263 53.7682 80.4106 53.8123 80.295 53.8123C80.1793 53.8123 80.0636 53.7682 79.9753 53.6799C79.7988 53.5034 79.7988 53.2172 79.9753 53.0406L85.942 47.074C86.1185 46.8975 86.4047 46.8975 86.5812 47.074C86.7578 47.2505 86.7578 47.5368 86.5812 47.7133L80.6146 53.6799ZM85.0864 54.4454C84.1725 54.4454 83.4289 53.7018 83.4289 52.7879C83.4289 51.8739 84.1725 51.1304 85.0864 51.1304C86.0003 51.1304 86.7439 51.8739 86.7439 52.7879C86.7439 53.7018 86.0003 54.4454 85.0864 54.4454Z" fill="white"/>
<path d="M85.0864 52.0342C84.6709 52.0342 84.3329 52.3721 84.3329 52.7876C84.3329 53.203 84.6709 53.541 85.0864 53.541C85.5018 53.541 85.8397 53.203 85.8397 52.7876C85.8397 52.3721 85.5018 52.0342 85.0864 52.0342Z" fill="white"/>
<path d="M81.4701 47.2124C81.0547 47.2124 80.7167 47.5504 80.7167 47.9658C80.7167 48.3812 81.0547 48.7192 81.4701 48.7192C81.8855 48.7192 82.2235 48.3812 82.2235 47.9658C82.2235 47.5504 81.8855 47.2124 81.4701 47.2124Z" fill="white"/>
</svg>
