<svg width="65" height="65" viewBox="0 0 65 65" fill="none" xmlns="http://www.w3.org/2000/svg">
<path d="M32.4999 64.9999C50.4492 64.9999 64.9999 50.4492 64.9999 32.4999C64.9999 14.5507 50.4492 0 32.4999 0C14.5507 0 0 14.5507 0 32.4999C0 50.4492 14.5507 64.9999 32.4999 64.9999Z" fill="#007AB9"/>
<path d="M51.9165 35.1271V48.5267H44.1482V36.0165C44.1482 32.8784 43.0258 30.7337 40.213 30.7337C39.3371 30.7385 38.484 31.0139 37.7706 31.5222C37.0572 32.0306 36.5183 32.747 36.2278 33.5734C36.0283 34.1835 35.9409 34.8247 35.9698 35.4659V48.5152H28.2034C28.2034 48.5152 28.3074 27.3376 28.2034 25.1505H35.9737V28.4619C35.9583 28.4889 35.9351 28.5139 35.9217 28.5389H35.9737V28.4619C36.6778 27.2418 37.7027 26.2379 38.9371 25.5591C40.1715 24.8803 41.5682 24.5526 42.9757 24.6114C48.0872 24.6114 51.9185 27.9517 51.9185 35.1252L51.9165 35.1271ZM20.075 13.8898C19.5276 13.8544 18.9786 13.9308 18.4616 14.1143C17.9446 14.2978 17.4704 14.5846 17.0678 14.9573C16.6652 15.33 16.3426 15.7807 16.1197 16.282C15.8969 16.7833 15.7784 17.3247 15.7714 17.8733C15.7645 18.4218 15.8693 18.9661 16.0794 19.4728C16.2895 19.9796 16.6006 20.4383 16.9937 20.8211C17.3867 21.2038 17.8536 21.5025 18.3658 21.699C18.878 21.8955 19.4248 21.9858 19.973 21.9642H20.0231C20.5711 21.9969 21.12 21.9176 21.6364 21.7311C22.1528 21.5447 22.6258 21.2551 23.0265 20.8799C23.4273 20.5047 23.7475 20.0518 23.9675 19.5489C24.1876 19.0459 24.3029 18.5034 24.3064 17.9544C24.31 17.4054 24.2016 16.8615 23.9881 16.3557C23.7745 15.85 23.4602 15.393 23.0643 15.0127C22.6684 14.6324 22.1992 14.3367 21.6852 14.1436C21.1713 13.9505 20.6234 13.8642 20.075 13.8898ZM16.1418 48.5171H23.9082V25.1524H16.1418V48.5171Z" fill="#F1F2F2"/>
</svg>
