<svg width="178" height="186" viewBox="0 0 178 186" fill="none" xmlns="http://www.w3.org/2000/svg">
<path d="M169.367 94.9855C168.622 93.4611 168.622 91.7129 169.367 90.1888L176.282 76.0604C180.132 68.1939 177.081 58.8177 169.338 54.7139L155.43 47.3432C153.93 46.5483 152.901 45.1334 152.607 43.4629L149.887 27.9732C148.373 19.349 140.386 13.5537 131.707 14.7801L116.119 16.9826C114.436 17.2199 112.772 16.6795 111.552 15.5001L100.236 4.56632C93.9352 -1.52193 84.0647 -1.52229 77.7644 4.56632L66.4484 15.5012C65.2275 16.681 63.5637 17.2202 61.8814 16.9837L46.2925 14.7812C37.6114 13.554 29.6274 19.3501 28.1128 27.9743L25.3928 43.4633C25.0991 45.1342 24.0705 46.5486 22.5703 47.3439L8.66255 54.7146C0.918945 58.8181 -2.13128 68.1949 1.71843 76.0615L8.63249 90.1895C9.37839 91.7139 9.37839 93.4622 8.63249 94.9863L1.71807 109.114C-2.13164 116.981 0.918582 126.357 8.66218 130.461L22.57 137.832C24.0705 138.626 25.0991 140.041 25.3928 141.712L28.1128 157.202C29.4916 165.053 36.2315 170.558 43.9777 170.558C44.7406 170.558 45.5147 170.504 46.2928 170.394L61.8818 168.192C63.563 167.953 65.2279 168.495 66.4488 169.674L77.7644 180.608C80.9153 183.653 84.9569 185.174 89 185.174C93.042 185.174 97.0861 183.652 100.236 180.608L111.552 169.674C112.772 168.495 114.437 167.956 116.119 168.192L131.707 170.394C140.39 171.621 148.373 165.825 149.887 157.201L152.608 141.712C152.901 140.041 153.93 138.627 155.43 137.832L169.338 130.461C177.081 126.357 180.132 116.98 176.282 109.114L169.367 94.9855Z" fill="#943622"/>
</svg>
