<svg width="51" height="51" viewBox="0 0 51 51" fill="none" xmlns="http://www.w3.org/2000/svg">
<circle cx="25.5" cy="25.5" r="25.5" fill="white"/>
<g clip-path="url(#clip0_105_476)">
<path d="M26.971 16.4746C26.8409 16.4944 26.7159 16.9664 26.4645 17.2122C26.2806 17.3896 26.0512 17.3785 25.9293 17.5979C25.883 17.6799 25.898 17.8197 25.8455 17.9541C25.7429 18.2227 25.3815 18.2467 25.3815 18.5394C25.3803 18.8555 25.6829 18.9158 25.9449 19.1401C26.1494 19.3206 26.1694 19.4451 26.417 19.5326C26.6283 19.6035 26.9428 19.3718 27.2261 19.4549C27.4587 19.5234 27.6813 19.5726 27.7338 19.808C27.78 20.0249 27.7307 20.3613 27.4487 20.3225C27.3536 20.312 26.9416 20.1752 26.4351 20.2282C25.8242 20.2966 25.127 20.4931 25.0589 21.1641C25.0214 21.5394 25.4922 21.9818 25.9468 21.8918C26.2613 21.8308 26.1125 21.4655 26.2838 21.288C26.5082 21.0607 27.78 22.0816 28.9625 22.0816C29.4602 22.0816 29.8303 21.9577 30.198 21.5782C30.2324 21.5492 30.2743 21.487 30.3274 21.4833C30.3775 21.487 30.465 21.5356 30.4938 21.5566C31.4461 22.3108 32.1657 23.8234 35.6654 23.8413C36.1575 23.8437 36.7183 24.0754 37.176 24.487C37.5844 24.8591 37.8232 25.4377 38.0552 26.0249C38.4053 26.906 39.0331 27.763 39.9848 28.7168C40.0367 28.7679 40.8201 29.3681 40.8827 29.413C40.8927 29.4192 40.9502 29.5547 40.9302 29.6305C40.9071 30.2023 40.8226 31.8652 42.0807 31.9404C42.3883 31.9558 42.3076 31.7427 42.3076 31.596C42.3071 31.3064 42.2532 31.0187 42.4084 30.7223C42.6203 30.3145 41.9588 30.1265 41.9782 29.2448C41.9919 28.5874 41.4316 28.6995 41.1471 28.1986C40.9833 27.9084 40.8376 27.7544 40.8483 27.3994C40.9121 25.402 40.4168 24.0896 40.1698 23.7673C39.9773 23.524 39.8178 23.4272 39.9941 23.3145C41.044 22.6312 41.2822 21.9953 41.2822 21.9953C41.8406 20.702 42.3427 19.5208 43.0349 19.0009C43.1743 18.8936 43.532 18.6306 43.7514 18.527C44.3973 18.227 44.7375 18.0452 44.9251 17.8653C45.2221 17.58 45.4565 16.9855 45.172 16.625C44.8181 16.1801 44.206 16.5332 43.9359 16.6909C42.0057 17.8197 41.7212 19.8111 41.0527 20.9547C40.5194 21.8684 39.6521 22.5394 38.8768 22.5942C38.2953 22.6367 37.6688 22.5209 37.0448 22.251C35.5272 21.5954 34.6968 20.7489 34.5011 20.5992C34.0934 20.2892 30.9283 17.2276 28.364 17.1025C28.364 17.1025 28.0458 16.4747 27.9658 16.4642C27.7782 16.4408 27.5862 16.8394 27.4487 16.8857C27.3193 16.9281 27.1017 16.4537 26.971 16.4747M15.6823 34.7476C15.4409 34.742 15.2359 34.5467 15.2359 34.3052L15.2365 26.4235H12.6003V35.1117C12.6003 35.5375 12.9504 35.885 13.38 35.885H17.9877C18.4203 35.885 18.7661 35.5375 18.7661 35.1117V26.4235H16.1325L16.13 34.3052C16.13 34.5467 15.9249 34.742 15.6823 34.7476ZM24.5086 26.4235H20.5188C20.0467 26.4235 19.6622 26.8018 19.6622 27.2719V35.8849H22.3007V27.9842C22.3026 27.7421 22.5014 27.5505 22.7466 27.5505C22.9929 27.5505 23.1905 27.7378 23.1961 27.9775V35.885H25.8242V27.9774C25.8273 27.7377 26.0249 27.5504 26.2706 27.5504C26.5145 27.5504 26.7158 27.7421 26.7177 27.9842V35.885H29.3563V27.2719C29.3563 26.8018 28.9712 26.4235 28.4991 26.4235H24.5086ZM9.07251 28.0008C9.07439 27.7377 8.85681 27.5504 8.62607 27.5504H8.17838V32.336H8.62607C8.85869 32.336 9.07444 32.1536 9.07251 31.8918V28.0008ZM10.8414 33.5073H8.17838V35.885H5.54348V26.4235H10.8583C11.3341 26.4235 11.7055 26.8043 11.7055 27.2757V32.6552C11.7055 33.1271 11.3198 33.5073 10.8414 33.5073ZM38.3985 33.7691C37.8689 33.7691 37.4243 34.2201 37.4243 34.7667C37.4243 35.3151 37.8689 35.7624 38.4153 35.7624C38.9575 35.7624 39.3964 35.3151 39.3964 34.7667C39.3964 34.2189 38.9575 33.7691 38.4153 33.7691H38.3985ZM39.5852 34.7636C39.5852 35.4062 39.0625 35.9287 38.4153 35.9287C37.7613 35.9287 37.2361 35.41 37.2361 34.7636C37.2361 34.1296 37.7613 33.5997 38.396 33.5997C39.0625 33.5997 39.5852 34.1136 39.5852 34.7636Z" fill="black"/>
<path d="M38.2934 34.6895C38.4766 34.6895 38.5729 34.6254 38.5729 34.4973C38.5729 34.3833 38.4797 34.3248 38.3015 34.3248H38.249V34.6895H38.2934ZM38.9681 35.4375H38.6536L38.249 34.907V35.4375H37.992V34.0962H38.2622C38.6292 34.0962 38.8243 34.2329 38.8243 34.4942C38.8243 34.6685 38.7092 34.8232 38.5485 34.8694L38.5297 34.8762L38.9681 35.4375ZM33.7802 32.3377V27.981C33.7739 27.74 33.577 27.5552 33.3313 27.5552C33.088 27.5552 32.8867 27.7474 32.8848 27.9877V32.3377H33.7802ZM33.7802 35.8848V33.5096H32.8848V35.8848H30.2512V27.2718C30.2512 26.8016 30.6357 26.4233 31.1078 26.4233H35.5572C36.0306 26.4233 36.4151 26.8016 36.4151 27.2718V35.8848L33.7802 35.8848Z" fill="black"/>
</g>
<defs>
<clipPath id="clip0_105_476">
<rect width="39.913" height="21.0652" fill="white" transform="translate(5.54348 15.5217)"/>
</clipPath>
</defs>
</svg>
