<svg width="66" height="65" viewBox="0 0 66 65" fill="none" xmlns="http://www.w3.org/2000/svg">
<path d="M33.1249 64.9999C51.0741 64.9999 65.6248 50.4492 65.6248 32.4999C65.6248 14.5507 51.0741 0 33.1249 0C15.1757 0 0.624939 14.5507 0.624939 32.4999C0.624939 50.4492 15.1757 64.9999 33.1249 64.9999Z" fill="#FD0D1B"/>
<path d="M50.2654 24.2477C50.0593 23.4849 49.6571 22.7894 49.0988 22.2304C48.5405 21.6714 47.8455 21.2684 47.083 21.0614C42.3951 20.4893 37.6741 20.232 32.9517 20.2913C28.2303 20.235 23.51 20.4832 18.8205 21.0344C18.0588 21.2521 17.3658 21.662 16.8082 22.2247C16.2506 22.7874 15.847 23.484 15.6362 24.2477C15.1237 27.1144 14.8749 30.0222 14.893 32.9343C14.8739 35.8465 15.1227 38.7543 15.6362 41.621C15.8429 42.3835 16.2456 43.0787 16.8042 43.6373C17.3628 44.1959 18.058 44.5986 18.8205 44.8053C23.5085 45.3768 28.2294 45.6341 32.9517 45.5754C37.6732 45.6317 42.3934 45.3835 47.083 44.8323C47.845 44.6256 48.5397 44.2232 49.098 43.6649C49.6563 43.1066 50.0588 42.4119 50.2654 41.6499C50.7779 38.7831 51.0266 35.8754 51.0086 32.9632C51.0428 30.0408 50.794 27.122 50.2654 24.2477Z" fill="#FF0000"/>
<path d="M26.8901 41.1851L41.21 32.9374L26.8901 24.6897V41.1851Z" fill="white"/>
</svg>
