<svg width="94" height="94" viewBox="0 0 94 94" fill="none" xmlns="http://www.w3.org/2000/svg">
<circle cx="47" cy="47" r="47" fill="#1A1A1B"/>
<path d="M61.5998 49.1853C61.5385 42.4895 67.1712 39.232 67.4288 39.0804C64.2388 34.5037 59.2945 33.8784 57.557 33.8285C53.4043 33.3985 49.3761 36.2737 47.2606 36.2737C45.103 36.2737 41.8454 33.87 38.3345 33.9407C33.8165 34.0092 29.59 36.5832 27.2718 40.5803C22.488 48.7303 26.0557 60.707 30.6393 67.2948C32.9319 70.5232 35.6112 74.1235 39.1177 73.9967C42.5484 73.8596 43.8299 71.8465 47.97 71.8465C52.0719 71.8465 53.2755 73.9967 56.8517 73.9157C60.5338 73.8596 62.8517 70.6748 65.0644 67.4194C67.714 63.7236 68.7779 60.0796 68.8203 59.8927C68.7356 59.8636 61.6716 57.2086 61.5998 49.1853ZM54.8439 29.4949C56.6889 27.2242 57.9516 24.1349 57.6012 21C54.9303 21.1163 51.5905 22.8178 49.6671 25.0386C47.9654 26.9956 46.4454 30.2033 46.8381 33.2198C49.8383 33.44 52.9185 31.7302 54.8439 29.4949Z" fill="white"/>
</svg>
