<svg width="172" height="51" viewBox="0 0 172 51" fill="none" xmlns="http://www.w3.org/2000/svg">
<g clip-path="url(#clip0_105_941)">
<path d="M165.632 51.0071H6.36752C4.68045 51.0016 3.06408 50.3284 1.87114 49.1346C0.678199 47.9408 0.00555263 46.3231 0 44.6348V6.37951C0.00555263 4.69116 0.678199 3.07355 1.87114 1.87971C3.06408 0.685858 4.68045 0.012698 6.36752 0.00714111H165.632C167.32 0.012698 168.936 0.685858 170.129 1.87971C171.322 3.07355 171.994 4.69116 172 6.37951V44.6278C171.994 46.3161 171.322 47.9337 170.129 49.1276C168.936 50.3214 167.32 50.9946 165.632 51.0001" fill="#100F0D"/>
<path d="M165.632 1.02576C167.051 1.02761 168.41 1.59225 169.413 2.59585C170.416 3.59945 170.98 4.96008 170.982 6.37938V44.6276C170.98 46.0469 170.416 47.4076 169.413 48.4112C168.41 49.4148 167.051 49.9794 165.632 49.9813H6.36752C4.9493 49.9794 3.5897 49.4148 2.58687 48.4112C1.58404 47.4076 1.01983 46.0469 1.01797 44.6276V6.37938C1.01983 4.96008 1.58404 3.59945 2.58687 2.59585C3.5897 1.59225 4.9493 1.02761 6.36752 1.02576H165.632ZM165.632 0.00701118H6.36752C4.68045 0.012568 3.06408 0.685728 1.87114 1.87958C0.678199 3.07342 0.00555263 4.69104 0 6.37938V44.6276C0.00555263 46.316 0.678199 47.9336 1.87114 49.1274C3.06408 50.3213 4.68045 50.9944 6.36752 51H165.632C167.32 50.9944 168.936 50.3213 170.129 49.1274C171.322 47.9336 171.994 46.316 172 44.6276V6.37938C171.996 4.68982 171.324 3.07042 170.131 1.87505C168.938 0.679687 167.321 0.00556595 165.632 0V0.00701118Z" fill="#A2A2A1"/>
<path d="M97.2678 11.8173L97.2256 10.349H97.2678L101.15 16.5808H102.147V8.9368H101.164V13.4122L101.206 14.8806H101.164L97.4573 8.9368H96.2639V16.5808H97.2467L97.2678 11.8173ZM88.8854 10.5738C89.1587 10.2989 89.4836 10.0808 89.8415 9.93196C90.1993 9.78312 90.583 9.70648 90.9705 9.70648C91.358 9.70648 91.7416 9.78312 92.0995 9.93196C92.4573 10.0808 92.7822 10.2989 93.0555 10.5738C93.5962 11.1729 93.8955 11.9515 93.8955 12.7588C93.8955 13.5661 93.5962 14.3447 93.0555 14.9438C92.7817 15.2179 92.4567 15.4352 92.0989 15.5835C91.7412 15.7319 91.3577 15.8082 90.9705 15.8082C90.5832 15.8082 90.1998 15.7319 89.842 15.5835C89.4843 15.4352 89.1592 15.2179 88.8854 14.9438C88.3505 14.3419 88.055 13.5643 88.055 12.7588C88.055 11.9532 88.3505 11.1757 88.8854 10.5738ZM93.7997 9.93444C93.4317 9.56397 92.9942 9.26997 92.5122 9.06935C92.0303 8.86872 91.5135 8.76544 90.9915 8.76544C90.4696 8.76544 89.9528 8.86872 89.4708 9.06935C88.9889 9.26997 88.5513 9.56397 88.1834 9.93444C87.4586 10.7015 87.0547 11.7172 87.0547 12.7729C87.0547 13.8286 87.4586 14.8442 88.1834 15.6113C88.5518 15.9809 88.9895 16.2742 89.4714 16.4742C89.9532 16.6743 90.4698 16.7773 90.9915 16.7773C91.5132 16.7773 92.0298 16.6743 92.5117 16.4742C92.9935 16.2742 93.4312 15.9809 93.7997 15.6113C94.5256 14.8462 94.9303 13.8314 94.9303 12.7764C94.9303 11.7213 94.5256 10.7066 93.7997 9.94148V9.93444ZM83.8588 9.88526V8.94381H78.6146V9.88526H80.7207V16.5878H81.7035V9.88526H83.8588ZM77.3719 8.94381H76.3891V16.5808H77.3719V8.94381ZM72.584 9.88526V8.94381H67.3398V9.88526H69.4459V16.5878H70.4288V9.88526H72.584ZM61.8498 8.94381V16.5808H66.3078V15.6675H62.8327V13.2436H65.9708V12.3302H62.8327V9.90633H66.3078V8.96489L61.8498 8.94381ZM60.3755 12.4988H56.6547V13.4122H59.4278C59.4055 13.7487 59.3164 14.0773 59.1657 14.3789C59.0151 14.6805 58.8058 14.9489 58.5502 15.1686C58.0182 15.6074 57.3436 15.8349 56.6547 15.808C56.2634 15.8148 55.8748 15.7417 55.5127 15.5931C55.1505 15.4445 54.8225 15.2236 54.5486 14.9438C54.002 14.3476 53.6987 13.5679 53.6987 12.7588C53.6987 11.9497 54.002 11.17 54.5486 10.5738C54.8225 10.294 55.1505 10.0731 55.5127 9.9245C55.8748 9.77591 56.2634 9.70279 56.6547 9.70961C57.0671 9.70495 57.476 9.7863 57.8552 9.94849C58.2079 10.0921 58.5191 10.3215 58.7608 10.6159L59.4629 9.91337C59.1287 9.53886 58.7099 9.24977 58.2413 9.07027C57.7368 8.86911 57.1978 8.76887 56.6547 8.7752C55.5971 8.7752 54.5829 9.19564 53.8351 9.94403C53.0872 10.6924 52.6671 11.7074 52.6671 12.7658C52.6671 13.8242 53.0872 14.8392 53.8351 15.5876C54.5829 16.336 55.5971 16.7565 56.6547 16.7565C57.1763 16.779 57.6966 16.6897 58.1809 16.4946C58.6652 16.2995 59.1023 16.0032 59.4629 15.6253C59.7851 15.2865 60.0351 14.8858 60.198 14.4474C60.361 14.009 60.4333 13.5421 60.4106 13.075C60.407 12.8791 60.3859 12.6839 60.3474 12.4918L60.3755 12.4988Z" fill="white" stroke="white" stroke-width="0.2" stroke-miterlimit="10"/>
<path d="M86.8144 27.7377C85.7433 27.7418 84.6976 28.0635 83.8091 28.662C82.9206 29.2605 82.2292 30.1091 81.8222 31.1005C81.4152 32.0919 81.3109 33.1819 81.5224 34.2326C81.7339 35.2833 82.2517 36.2478 83.0105 37.0042C83.7693 37.7607 84.7351 38.2752 85.7858 38.4827C86.8366 38.6903 87.9252 38.5817 88.9143 38.1706C89.9034 37.7594 90.7486 37.0642 91.3432 36.1727C91.9378 35.2812 92.2552 34.2334 92.2552 33.1616C92.2657 32.4446 92.1319 31.7329 91.862 31.0687C91.592 30.4045 91.1912 29.8015 90.6836 29.2954C90.176 28.7894 89.5719 28.3907 88.9072 28.1231C88.2424 27.8555 87.5307 27.7244 86.8144 27.7377ZM86.8144 36.4496C86.1548 36.4976 85.4961 36.3457 84.924 36.0137C84.3519 35.6817 83.893 35.185 83.607 34.5883C83.3209 33.9915 83.2211 33.3225 83.3205 32.6682C83.4198 32.0138 83.7138 31.4047 84.164 30.9199C84.6142 30.4351 85.1999 30.0973 85.8447 29.9504C86.4895 29.8034 87.1636 29.8542 87.7792 30.0961C88.3947 30.338 88.9232 30.7598 89.2958 31.3066C89.6684 31.8534 89.8679 32.4998 89.8682 33.1616C89.8871 33.5787 89.8226 33.9953 89.6786 34.3872C89.5346 34.779 89.3139 35.1382 89.0296 35.4437C88.7452 35.7492 88.4029 35.9949 88.0225 36.1664C87.6421 36.3379 87.2314 36.4318 86.8144 36.4426V36.4496ZM74.9499 27.7377C73.8786 27.7405 72.8321 28.0609 71.9427 28.6586C71.0532 29.2563 70.3608 30.1043 69.9527 31.0957C69.5446 32.087 69.4393 33.1771 69.65 34.2283C69.8607 35.2795 70.378 36.2447 71.1365 37.0018C71.8951 37.7589 72.8608 38.2741 73.9117 38.4822C74.9627 38.6904 76.0517 38.5822 77.0412 38.1712C78.0307 37.7603 78.8763 37.0651 79.4712 36.1735C80.0662 35.2818 80.3837 34.2337 80.3837 33.1616C80.3941 32.4446 80.2604 31.7329 79.9904 31.0687C79.7205 30.4045 79.3197 29.8015 78.8121 29.2954C78.3045 28.7894 77.7004 28.3907 77.0357 28.1231C76.3709 27.8555 75.6592 27.7244 74.9429 27.7377H74.9499ZM74.9499 36.4496C74.2903 36.4976 73.6316 36.3457 73.0595 36.0137C72.4874 35.6817 72.0285 35.185 71.7424 34.5883C71.4564 33.9915 71.3566 33.3225 71.456 32.6682C71.5553 32.0138 71.8493 31.4047 72.2995 30.9199C72.7497 30.4351 73.3354 30.0973 73.9802 29.9504C74.625 29.8034 75.2991 29.8542 75.9147 30.0961C76.5302 30.338 77.0587 30.7598 77.4313 31.3066C77.804 31.8534 78.0034 32.4998 78.0037 33.1616C78.0226 33.5792 77.9578 33.9964 77.8134 34.3887C77.669 34.781 77.4477 35.1405 77.1626 35.4461C76.8775 35.7517 76.5343 35.9973 76.1532 36.1684C75.772 36.3395 75.3605 36.4327 74.9429 36.4426L74.9499 36.4496ZM60.8318 29.4239V31.7213H66.3429C66.2636 32.8028 65.8207 33.8256 65.0862 34.6229C64.5358 35.1862 63.8733 35.6274 63.1416 35.9178C62.4099 36.2083 61.6254 36.3416 60.8389 36.3091C59.2171 36.3091 57.6618 35.6644 56.5151 34.5168C55.3683 33.3692 54.7241 31.8127 54.7241 30.1897C54.7241 28.5667 55.3683 27.0102 56.5151 25.8626C57.6618 24.715 59.2171 24.0702 60.8389 24.0702C62.3847 24.0479 63.8764 24.639 64.9879 25.7143L66.6096 24.0913C65.8505 23.3397 64.949 22.7475 63.958 22.3493C62.967 21.9512 61.9066 21.7552 60.8389 21.7728C58.6045 21.7728 56.4617 22.6611 54.8818 24.2422C53.3019 25.8233 52.4144 27.9677 52.4144 30.2037C52.4144 32.4398 53.3019 34.5842 54.8818 36.1653C56.4617 37.7464 58.6045 38.6346 60.8389 38.6346C61.9294 38.6791 63.0169 38.4916 64.0298 38.0847C65.0426 37.6778 65.9578 37.0607 66.7149 36.274C68.0542 34.8086 68.7673 32.877 68.7017 30.8923C68.7051 30.4209 68.6628 29.9503 68.5753 29.4871L60.8318 29.4239ZM118.561 31.2084C118.235 30.2259 117.615 29.3677 116.785 28.7505C115.954 28.1333 114.954 27.787 113.92 27.7588C111.112 27.7588 108.809 29.9578 108.809 33.1826C108.793 33.8958 108.921 34.6048 109.185 35.2674C109.449 35.93 109.844 36.5325 110.346 37.0388C110.848 37.5452 111.447 37.945 112.107 38.2144C112.767 38.4837 113.474 38.6171 114.187 38.6065C115.08 38.6124 115.96 38.3958 116.748 37.9764C117.536 37.5569 118.207 36.9477 118.701 36.2037L116.855 34.9742C116.577 35.433 116.185 35.812 115.718 36.0742C115.25 36.3365 114.723 36.4731 114.187 36.4707C113.635 36.492 113.089 36.3466 112.621 36.0534C112.153 35.7602 111.784 35.3328 111.561 34.8267L118.799 31.8267L118.561 31.2084ZM111.175 33.014C111.15 32.6214 111.202 32.2275 111.33 31.8553C111.457 31.4831 111.658 31.14 111.919 30.8459C112.18 30.5517 112.497 30.3125 112.852 30.1419C113.206 29.9714 113.591 29.873 113.983 29.8524C114.394 29.8273 114.803 29.923 115.16 30.1278C115.516 30.3325 115.805 30.6374 115.991 31.0047L111.175 33.014ZM105.285 38.2763H107.665V22.3138H105.285V38.2763ZM101.382 28.9742H101.304C100.943 28.5804 100.502 28.2683 100.01 28.0587C99.5189 27.8491 98.9883 27.7468 98.4542 27.7588C97.0645 27.8296 95.7551 28.4319 94.7965 29.4413C93.8379 30.4508 93.3034 31.7901 93.3034 33.1826C93.3034 34.5752 93.8379 35.9146 94.7965 36.924C95.7551 37.9334 97.0645 38.5357 98.4542 38.6065C98.9898 38.6195 99.5218 38.5163 100.014 38.3041C100.506 38.0918 100.946 37.7756 101.304 37.377H101.382V38.1499C101.382 40.2576 100.28 41.3325 98.4893 41.3325C97.8949 41.3181 97.318 41.1275 96.8319 40.7848C96.3458 40.4421 95.9721 39.9628 95.7584 39.4075L93.6803 40.2576C94.0706 41.2097 94.7363 42.0233 95.5919 42.5941C96.4475 43.165 97.454 43.467 98.4823 43.4613C101.29 43.4613 103.635 41.8243 103.635 37.8407V28.0609H101.375L101.382 28.9742ZM98.6367 36.4426C97.8025 36.388 97.0202 36.0178 96.4487 35.4072C95.8771 34.7966 95.5591 33.9912 95.5591 33.1546C95.5591 32.3179 95.8771 31.5125 96.4487 30.9019C97.0202 30.2913 97.8025 29.9211 98.6367 29.8665C100.258 29.8665 101.529 31.2717 101.529 33.1756C101.529 35.0796 100.265 36.4426 98.6367 36.4426ZM129.695 22.3138H124.001V38.2553H126.374V32.2201H129.695C130.372 32.2643 131.05 32.1691 131.689 31.9404C132.327 31.7117 132.912 31.3543 133.407 30.8903C133.901 30.4264 134.296 29.8657 134.566 29.2431C134.835 28.6205 134.974 27.9491 134.974 27.2705C134.974 26.5919 134.835 25.9205 134.566 25.2979C134.296 24.6752 133.901 24.1146 133.407 23.6506C132.912 23.1867 132.327 22.8293 131.689 22.6005C131.05 22.3718 130.372 22.2766 129.695 22.3208V22.3138ZM129.758 29.993H126.374V24.5269H129.758C130.117 24.5269 130.472 24.5976 130.803 24.7349C131.135 24.8723 131.436 25.0736 131.689 25.3274C131.943 25.5812 132.144 25.8825 132.281 26.214C132.418 26.5456 132.489 26.901 132.489 27.2599C132.489 27.6188 132.418 27.9742 132.281 28.3058C132.144 28.6374 131.943 28.9387 131.689 29.1925C131.436 29.4463 131.135 29.6476 130.803 29.7849C130.472 29.9223 130.117 29.993 129.758 29.993ZM144.452 27.7026C143.589 27.6574 142.731 27.8645 141.983 28.2986C141.235 28.7327 140.629 29.3751 140.24 30.1475L142.346 31.0257C142.554 30.6398 142.87 30.3231 143.255 30.1146C143.641 29.9062 144.079 29.815 144.515 29.8524C145.744 29.8524 146.993 30.555 147.014 31.904V32.0656C146.252 31.6574 145.401 31.445 144.536 31.4473C142.262 31.4473 139.945 32.6979 139.945 35.0304C139.945 37.1382 141.812 38.5433 143.897 38.5433C144.496 38.5775 145.093 38.4509 145.626 38.1767C146.159 37.9024 146.609 37.4905 146.93 36.9836H147.007V38.2131H149.31V32.1007C149.303 29.2904 147.183 27.7026 144.466 27.7026H144.452ZM144.164 36.4426C143.385 36.4426 142.297 36.0492 142.297 35.0866C142.297 33.8571 143.652 33.3864 144.824 33.3864C145.582 33.3658 146.331 33.5502 146.993 33.9204C146.907 34.6111 146.573 35.2471 146.055 35.7108C145.536 36.1744 144.867 36.4344 144.171 36.4426H144.164ZM157.643 28.0539L154.919 34.9602H154.835L152.027 28.0539H149.464L153.677 37.7143L151.29 43.0679H153.768L160.304 28.0398L157.643 28.0539ZM136.231 38.2482H138.653V22.3138H136.28L136.231 38.2482Z" fill="white"/>
<path d="M26.3968 24.801L12.8263 39.2038C12.971 39.7506 13.2404 40.2565 13.6133 40.6817C13.9862 41.1068 14.4525 41.4396 14.9756 41.6541C15.4987 41.8685 16.0644 41.9587 16.6282 41.9176C17.192 41.8764 17.7385 41.705 18.225 41.4169H18.2671L33.5435 32.5293L26.3968 24.801Z" fill="#EB3131"/>
<path d="M40.1146 22.3138L33.5154 18.4777L26.0878 25.096L33.5365 32.5292L40.0935 28.7423C40.6721 28.4261 41.155 27.9598 41.4914 27.3923C41.8277 26.8249 42.0052 26.1773 42.0052 25.5175C42.0052 24.8578 41.8277 24.2102 41.4914 23.6427C41.155 23.0753 40.6721 22.609 40.0935 22.2927" fill="#F6B60B"/>
<path d="M12.8333 11.8314C12.7511 12.1385 12.7086 12.4549 12.707 12.7728V38.2342C12.7082 38.5522 12.7507 38.8686 12.8333 39.1756L26.8741 25.1241L12.8333 11.8173" fill="#5778C5"/>
<path d="M26.495 25.5035L33.5154 18.4777L18.2671 9.62527C17.7798 9.33297 17.2314 9.15782 16.665 9.11361C16.0986 9.06939 15.5296 9.15732 15.0029 9.37047C14.4762 9.58362 14.0062 9.9162 13.6297 10.342C13.2532 10.7678 12.9806 11.2752 12.8333 11.8243L26.495 25.5035Z" fill="#3BAD49"/>
</g>
<defs>
<clipPath id="clip0_105_941">
<rect width="172" height="51" fill="white"/>
</clipPath>
</defs>
</svg>
