<svg width="49" height="49" viewBox="0 0 49 49" fill="none" xmlns="http://www.w3.org/2000/svg">
<path d="M49 24.5C49 10.969 38.031 0 24.5 0C10.969 0 0 10.969 0 24.5C0 38.031 10.969 49 24.5 49C38.031 49 49 38.031 49 24.5Z" fill="#FFC127"/>
<g clip-path="url(#clip0_105_1005)">
<path d="M31 29.08C30.24 29.08 29.56 29.38 29.04 29.85L21.91 25.7C21.96 25.47 22 25.24 22 25C22 24.76 21.96 24.53 21.91 24.3L28.96 20.19C29.5 20.69 30.21 21 31 21C32.66 21 34 19.66 34 18C34 16.34 32.66 15 31 15C29.34 15 28 16.34 28 18C28 18.24 28.04 18.47 28.09 18.7L21.04 22.81C20.5 22.31 19.79 22 19 22C17.34 22 16 23.34 16 25C16 26.66 17.34 28 19 28C19.79 28 20.5 27.69 21.04 27.19L28.16 31.35C28.11 31.56 28.08 31.78 28.08 32C28.08 33.61 29.39 34.92 31 34.92C32.61 34.92 33.92 33.61 33.92 32C33.92 30.39 32.61 29.08 31 29.08Z" fill="#943622"/>
</g>
<defs>
<clipPath id="clip0_105_1005">
<rect width="24" height="24" fill="white" transform="translate(13 13)"/>
</clipPath>
</defs>
</svg>
