<svg width="105" height="106" viewBox="0 0 105 106" fill="none" xmlns="http://www.w3.org/2000/svg">
<circle cx="52.5" cy="52.5444" r="52.5" fill="#212327"/>
<path d="M24.7856 67.5549C25.3618 67.4112 25.8391 67.1877 26.2177 66.8843C26.5963 66.5649 26.7856 66.006 26.7856 65.2077V51.6988C24.2178 51.8266 22.5553 52.9763 21.7981 55.1479L21.3043 55.1239L21.4772 51.627L21.5265 50.7408H36.9826L37.032 51.627L37.2048 55.1239L36.711 55.1479C35.9539 52.9763 34.2914 51.8266 31.7236 51.6988V65.2077C31.7236 66.006 31.9129 66.5649 32.2915 66.8843C32.6701 67.1877 33.1474 67.4112 33.7235 67.5549V67.9861H24.7856V67.5549Z" fill="white"/>
<path d="M36.0371 67.6028C36.498 67.4751 36.8765 67.2755 37.1728 67.004C37.4856 66.7166 37.6419 66.2136 37.6419 65.4951V58.2616C37.6419 57.5431 37.4856 57.0481 37.1728 56.7766C36.8765 56.4892 36.498 56.2816 36.0371 56.1539V55.7706H42.2837V59.6269C42.58 58.4453 43.1232 57.4872 43.9133 56.7527C44.7034 56.0022 45.6169 55.6269 46.6539 55.6269C46.9008 55.6269 47.1559 55.6509 47.4193 55.6988L46.7033 59.7227H46.407C45.8967 59.4672 45.3947 59.3395 44.9009 59.3395C44.1766 59.3395 43.5758 59.6029 43.0985 60.1299C42.6211 60.6408 42.3495 61.3514 42.2837 62.2616V65.4951C42.2837 66.2136 42.4318 66.7166 42.7281 67.004C43.0409 67.2755 43.4277 67.4751 43.8886 67.6028V67.9861H36.0371V67.6028Z" fill="white"/>
<path d="M52.9777 68.1298C52.237 68.1298 51.5621 67.9781 50.9531 67.6747C50.3605 67.3553 49.8832 66.8923 49.521 66.2855C49.1754 65.6787 49.0025 64.9681 49.0025 64.1538V58.2616C49.0025 57.5431 48.8462 57.0481 48.5334 56.7766C48.2371 56.4892 47.8586 56.2816 47.3977 56.1539V55.7706H53.6443V63.5071C53.6443 64.7685 54.1875 65.3993 55.2739 65.3993C55.7348 65.3993 56.2615 65.2635 56.854 64.9921V58.2616C56.854 57.5431 56.7388 57.0481 56.5084 56.7766C56.2779 56.4892 55.9899 56.2816 55.6442 56.1539V55.7706H61.4958V65.4951C61.4958 66.2136 61.644 66.7166 61.9402 67.004C62.253 67.2755 62.6398 67.4751 63.1007 67.6028V67.9861H58.1873C57.5947 67.4591 57.1586 66.8124 56.8787 66.046C56.4508 66.6368 55.9076 67.1318 55.2492 67.531C54.5908 67.9302 53.8336 68.1298 52.9777 68.1298Z" fill="white"/>
<path d="M62.8486 67.6028C63.3095 67.4751 63.688 67.2755 63.9843 67.004C64.2971 66.7166 64.4534 66.2136 64.4534 65.4951V53.4952C64.4534 52.7767 64.2971 52.2976 63.9843 52.0581C63.688 51.8186 63.3012 51.6749 62.8239 51.627L62.7745 51.2437L69.0952 50.2617V65.4951C69.0952 66.2136 69.2433 66.7166 69.5396 67.004C69.8524 67.2755 70.2392 67.4751 70.7001 67.6028V67.9861H62.8486V67.6028Z" fill="white"/>
<path d="M70.7332 69.2076L71.0789 68.9681C71.9513 69.527 72.8648 69.8064 73.8195 69.8064C74.3133 69.8064 74.7413 69.7266 75.1034 69.5669C75.482 69.4232 75.7536 69.2236 75.9182 68.9681L71.3011 58.1179C71.0213 57.4632 70.7415 57.0081 70.4617 56.7527C70.1983 56.4972 69.9102 56.2976 69.5975 56.1539V55.7706H76.9305V56.1539C76.6178 56.2337 76.3626 56.3455 76.1651 56.4892C75.984 56.6329 75.8935 56.8724 75.8935 57.2077C75.8935 57.4473 75.9676 57.7586 76.1157 58.1419L78.3132 63.4831L80.634 58.1179C80.7657 57.8145 80.8316 57.5351 80.8316 57.2796C80.8316 56.9283 80.7081 56.6728 80.4612 56.5131C80.2308 56.3535 79.9345 56.2337 79.5724 56.1539V55.7706H83.6956V56.1539C83.317 56.2976 82.9714 56.4972 82.6586 56.7527C82.3459 57.0081 82.0414 57.4632 81.7451 58.1179L76.6836 69.5908C76.1569 70.7884 75.5643 71.6667 74.9059 72.2255C74.2475 72.8004 73.4986 73.0878 72.6591 73.0878C71.9348 73.0878 71.1201 72.8802 70.2148 72.4651L70.7332 69.2076Z" fill="white"/>
<path d="M36.4885 35.0725H35V36.2849H36.4885V43.317H37.8152V36.2849H40.1451V35.0725H37.8152V34.1187C37.8152 33.7954 37.88 33.5691 38.0256 33.4236C38.155 33.2942 38.3977 33.2134 38.7213 33.2134H40.1613V32.001H38.6404C37.88 32.001 37.3299 32.1788 36.9901 32.5344C36.6503 32.8901 36.4885 33.4236 36.4885 34.151V35.0725Z" fill="#9C9C9C"/>
<path d="M45.2324 35.0725H44.8603C44.1807 35.0725 43.663 35.1856 43.2909 35.412C42.9026 35.6383 42.5951 35.9454 42.3686 36.3172L42.1907 35.0725H41.0419V43.317H42.3686V39.1139C42.3686 38.338 42.5304 37.6913 42.8702 37.1579C43.21 36.6406 43.7763 36.3657 44.569 36.3657H45.2324V35.0725Z" fill="#9C9C9C"/>
<path d="M47.6381 42.8805C48.2529 43.2362 48.9648 43.414 49.7738 43.414C50.5666 43.414 51.2785 43.2362 51.8933 42.8805C52.5081 42.5249 52.9935 42.0399 53.3495 41.3933C53.6892 40.7628 53.8672 40.0354 53.8672 39.1947C53.8672 38.3703 53.6892 37.6428 53.3495 36.9962C52.9935 36.3657 52.5081 35.8646 51.8933 35.509C51.2785 35.1533 50.5666 34.9755 49.7738 34.9755C48.9648 34.9755 48.2529 35.1533 47.6381 35.509C47.0233 35.8646 46.5379 36.3657 46.1981 36.9962C45.8422 37.6428 45.6804 38.3703 45.6804 39.1947C45.6804 40.0354 45.8422 40.7628 46.1981 41.3933C46.5379 42.0399 47.0233 42.5249 47.6381 42.8805ZM51.1976 41.8459C50.7769 42.1046 50.3077 42.2339 49.7738 42.2339C49.2237 42.2339 48.7545 42.1046 48.3338 41.8459C47.9132 41.5873 47.6057 41.2316 47.3792 40.7628C47.1527 40.3102 47.0395 39.7767 47.0395 39.1947C47.0395 38.6128 47.1527 38.0955 47.3792 37.6267C47.6057 37.174 47.9132 36.8022 48.3338 36.5436C48.7545 36.2849 49.2237 36.1556 49.7738 36.1556C50.3077 36.1556 50.7769 36.2849 51.1976 36.5436C51.6183 36.8022 51.9419 37.174 52.1684 37.6267C52.3949 38.0955 52.5081 38.6128 52.5081 39.1947C52.5081 39.7767 52.3949 40.3102 52.1684 40.7628C51.9419 41.2316 51.6183 41.5873 51.1976 41.8459Z" fill="#9C9C9C"/>
<path d="M66.8437 35.8484C66.2612 35.2665 65.517 34.9755 64.5947 34.9755C63.268 34.9755 62.3134 35.509 61.731 36.5436C61.5045 36.0263 61.1485 35.6383 60.6955 35.3796C60.2425 35.121 59.7085 34.9755 59.1261 34.9755C58.1068 34.9755 57.2978 35.3958 56.7153 36.2041L56.5373 35.0725H55.3886V43.317H56.7153V38.9684C56.7153 38.144 56.9095 37.4812 57.2978 36.9639C57.6861 36.4466 58.22 36.1879 58.8996 36.1879C59.5306 36.1879 60.0159 36.3981 60.3719 36.8184C60.7117 37.2387 60.8896 37.853 60.8896 38.6451V43.317H62.2164V38.9038C62.2164 38.0631 62.4105 37.4003 62.7988 36.9154C63.1871 36.4304 63.7372 36.1879 64.433 36.1879C65.0478 36.1879 65.5332 36.3981 65.8729 36.8184C66.2127 37.2387 66.3907 37.853 66.3907 38.6451V43.317H67.7174V38.5643C67.7174 37.3357 67.4262 36.4304 66.8437 35.8484Z" fill="#9C9C9C"/>
</svg>
