<svg width="66" height="65" viewBox="0 0 66 65" fill="none" xmlns="http://www.w3.org/2000/svg">
<path d="M33.3132 64.9999C51.2625 64.9999 65.8132 50.4492 65.8132 32.4999C65.8132 14.5507 51.2625 0 33.3132 0C15.364 0 0.813293 14.5507 0.813293 32.4999C0.813293 50.4492 15.364 64.9999 33.3132 64.9999Z" fill="#03A9F4"/>
<path d="M49.8913 22.4937C48.6246 23.046 47.285 23.413 45.9137 23.5834C47.3564 22.7248 48.4345 21.3672 48.9441 19.7676C47.5907 20.5702 46.11 21.1353 44.5661 21.4387C43.619 20.4302 42.3908 19.7295 41.0407 19.4275C39.6907 19.1255 38.281 19.236 36.9945 19.7448C35.708 20.2536 34.604 21.1372 33.8257 22.2809C33.0474 23.4247 32.6307 24.7759 32.6296 26.1594C32.6241 26.6886 32.6777 27.2168 32.7894 27.7342C30.0427 27.5996 27.3553 26.8869 24.9029 25.6424C22.4506 24.398 20.2885 22.65 18.558 20.5126C17.6691 22.0311 17.3932 23.8316 17.7868 25.5465C18.1804 27.2614 19.2137 28.7615 20.6758 29.7403C19.5841 29.707 18.5165 29.4118 17.5627 28.8797V28.9548C17.5635 30.5494 18.1141 32.0949 19.1217 33.3308C20.1293 34.5667 21.5322 35.4173 23.0939 35.7393C22.5034 35.8949 21.8948 35.9713 21.2842 35.9665C20.8455 35.9745 20.4072 35.9351 19.9769 35.8491C20.4225 37.22 21.2822 38.4191 22.4376 39.2811C23.593 40.1431 24.9873 40.6256 26.4284 40.6622C23.9848 42.5753 20.9703 43.6138 17.8669 43.6116C17.3147 43.6136 16.7629 43.5801 16.215 43.5115C19.3715 45.5447 23.0492 46.6206 26.8038 46.6092C29.3884 46.6274 31.9507 46.132 34.3422 45.1517C36.7337 44.1714 38.9066 42.7258 40.7348 40.8989C42.563 39.0719 44.0101 36.9 44.992 34.5092C45.9739 32.1184 46.4711 29.5563 46.4547 26.9718C46.4547 26.6657 46.4451 26.3711 46.4297 26.0785C47.7919 25.104 48.965 23.8892 49.8913 22.4937Z" fill="white"/>
</svg>
