<svg width="132" height="39" viewBox="0 0 132 39" fill="none" xmlns="http://www.w3.org/2000/svg">
<g clip-path="url(#clip0_105_271)">
<path d="M127.113 39.0054H4.8867C3.59198 39.0011 2.3515 38.4864 1.43599 37.5734C0.520479 36.6605 0.00426132 35.4235 0 34.1324V4.87836C0.00426132 3.58727 0.520479 2.35027 1.43599 1.43733C2.3515 0.52439 3.59198 0.00962046 4.8867 0.00537109H127.113C128.408 0.00962046 129.648 0.52439 130.564 1.43733C131.48 2.35027 131.996 3.58727 132 4.87836V34.127C131.996 35.4181 131.48 36.6551 130.564 37.568C129.648 38.481 128.408 38.9958 127.113 39" fill="#100F0D"/>
<path d="M127.113 0.784401C128.202 0.785823 129.245 1.21761 130.015 1.98506C130.784 2.75252 131.217 3.793 131.219 4.87835V34.127C131.217 35.2124 130.784 36.2528 130.015 37.0203C129.245 37.7878 128.202 38.2195 127.113 38.221H4.8867C3.7983 38.2195 2.75489 37.7878 1.98527 37.0203C1.21566 36.2528 0.782657 35.2124 0.781231 34.127V4.87835C0.782657 3.793 1.21566 2.75252 1.98527 1.98506C2.75489 1.21761 3.7983 0.785823 4.8867 0.784401H127.113ZM127.113 0.00536149H4.8867C3.59198 0.00961086 2.3515 0.52438 1.43599 1.43732C0.520479 2.35027 0.00426132 3.58726 0 4.87835V34.127C0.00426132 35.4181 0.520479 36.6551 1.43599 37.568C2.3515 38.481 3.59198 38.9958 4.8867 39H127.113C128.408 38.9958 129.648 38.481 130.564 37.568C131.48 36.6551 131.996 35.4181 132 34.127V4.87835C131.997 3.58633 131.482 2.34797 130.566 1.43386C129.65 0.519761 128.409 0.00425631 127.113 0V0.00536149Z" fill="#A2A2A1"/>
<path d="M74.6473 9.03669L74.615 7.91381H74.6473L77.6268 12.6793H78.3918V6.83392H77.6376V10.2563L77.6699 11.3792H77.6376L74.7928 6.83392H73.8769V12.6793H74.6312L74.6473 9.03669ZM68.2144 8.08574C68.4241 7.87553 68.6735 7.70874 68.9481 7.59492C69.2227 7.4811 69.5171 7.4225 69.8145 7.4225C70.1119 7.4225 70.4064 7.4811 70.681 7.59492C70.9556 7.70874 71.2049 7.87553 71.4147 8.08574C71.8296 8.54389 72.0593 9.13927 72.0593 9.75662C72.0593 10.374 71.8296 10.9694 71.4147 11.4275C71.2046 11.6371 70.9551 11.8033 70.6805 11.9167C70.406 12.0301 70.1117 12.0885 69.8145 12.0885C69.5173 12.0885 69.2231 12.0301 68.9485 11.9167C68.674 11.8033 68.4245 11.6371 68.2144 11.4275C67.8039 10.9672 67.5771 10.3726 67.5771 9.75662C67.5771 9.14062 67.8039 8.54605 68.2144 8.08574ZM71.9858 7.59682C71.7034 7.31352 71.3676 7.08869 70.9977 6.93528C70.6279 6.78186 70.2313 6.70288 69.8307 6.70288C69.4301 6.70288 69.0335 6.78186 68.6636 6.93528C68.2938 7.08869 67.958 7.31352 67.6756 7.59682C67.1193 8.1834 66.8094 8.96007 66.8094 9.76737C66.8094 10.5747 67.1193 11.3514 67.6756 11.9379C67.9583 12.2206 68.2943 12.4448 68.6641 12.5978C69.0339 12.7509 69.4303 12.8296 69.8307 12.8296C70.2311 12.8296 70.6275 12.7509 70.9973 12.5978C71.3671 12.4448 71.703 12.2206 71.9858 11.9379C72.5429 11.3529 72.8535 10.5769 72.8535 9.77006C72.8535 8.96327 72.5429 8.18727 71.9858 7.6022V7.59682ZM64.3567 7.55921V6.83928H60.3321V7.55921H61.9484V12.6847H62.7027V7.55921H64.3567ZM59.3784 6.83928H58.6242V12.6793H59.3784V6.83928ZM55.704 7.55921V6.83928H51.6794V7.55921H53.2957V12.6847H54.05V7.55921H55.704ZM47.4661 6.83928V12.6793H50.8874V11.9809H48.2204V10.1273H50.6287V9.4289H48.2204V7.57533H50.8874V6.8554L47.4661 6.83928ZM46.3347 9.55783H43.4792V10.2563H45.6073C45.5903 10.5136 45.5219 10.7649 45.4063 10.9955C45.2906 11.2261 45.13 11.4314 44.9339 11.5994C44.5256 11.9349 44.0078 12.109 43.4792 12.0884C43.1789 12.0936 42.8806 12.0377 42.6027 11.924C42.3248 11.8104 42.0731 11.6415 41.8629 11.4275C41.4434 10.9716 41.2106 10.3754 41.2106 9.75662C41.2106 9.13787 41.4434 8.54164 41.8629 8.08574C42.0731 7.87179 42.3248 7.70284 42.6027 7.58922C42.8806 7.47559 43.1789 7.41968 43.4792 7.42489C43.7957 7.42133 44.1094 7.48354 44.4005 7.60756C44.6711 7.7174 44.91 7.89284 45.0955 8.11797L45.6343 7.58071C45.3778 7.29431 45.0564 7.07325 44.6968 6.93598C44.3096 6.78215 43.896 6.7055 43.4792 6.71034C42.6676 6.71034 41.8892 7.03186 41.3153 7.60415C40.7413 8.17645 40.4189 8.95265 40.4189 9.762C40.4189 10.5713 40.7413 11.3475 41.3153 11.9198C41.8892 12.4921 42.6676 12.8137 43.4792 12.8137C43.8795 12.8309 44.2788 12.7626 44.6505 12.6134C45.0221 12.4642 45.3576 12.2376 45.6343 11.9487C45.8815 11.6896 46.0735 11.3831 46.1985 11.0479C46.3235 10.7127 46.379 10.3556 46.3616 9.99839C46.3589 9.8486 46.3426 9.69937 46.3131 9.55247L46.3347 9.55783Z" fill="white" stroke="white" stroke-width="0.2" stroke-miterlimit="10"/>
<path d="M66.625 21.2111C65.803 21.2143 65.0005 21.4603 64.3186 21.918C63.6367 22.3756 63.1061 23.0245 62.7938 23.7827C62.4815 24.5409 62.4014 25.3743 62.5637 26.1778C62.726 26.9813 63.1234 27.7189 63.7057 28.2973C64.2881 28.8758 65.0292 29.2692 65.8356 29.4279C66.642 29.5867 67.4775 29.5036 68.2366 29.1892C68.9957 28.8748 69.6443 28.3432 70.1006 27.6615C70.5569 26.9797 70.8005 26.1785 70.8005 25.3588C70.8085 24.8105 70.7059 24.2663 70.4987 23.7584C70.2915 23.2505 69.984 22.7893 69.5944 22.4023C69.2048 22.0154 68.7412 21.7105 68.2311 21.5059C67.721 21.3012 67.1748 21.201 66.625 21.2111ZM66.625 27.8732C66.1188 27.9099 65.6133 27.7937 65.1742 27.5399C64.7352 27.286 64.383 26.9061 64.1635 26.4498C63.944 25.9935 63.8674 25.4818 63.9436 24.9815C64.0199 24.4811 64.2455 24.0153 64.591 23.6446C64.9365 23.2739 65.386 23.0155 65.8808 22.9032C66.3757 22.7908 66.893 22.8297 67.3654 23.0147C67.8378 23.1996 68.2434 23.5222 68.5294 23.9403C68.8153 24.3584 68.9684 24.8527 68.9687 25.3588C68.9831 25.6778 68.9336 25.9964 68.8231 26.296C68.7126 26.5957 68.5433 26.8703 68.325 27.1039C68.1068 27.3376 67.8441 27.5255 67.5522 27.6566C67.2603 27.7878 66.945 27.8596 66.625 27.8678V27.8732ZM57.5197 21.2111C56.6975 21.2133 55.8944 21.4583 55.2118 21.9154C54.5292 22.3724 53.9978 23.0209 53.6846 23.779C53.3715 24.5371 53.2906 25.3707 53.4523 26.1746C53.614 26.9784 54.011 27.7165 54.5932 28.2954C55.1753 28.8744 55.9164 29.2684 56.723 29.4276C57.5295 29.5867 58.3653 29.504 59.1246 29.1897C59.884 28.8755 60.533 28.3439 60.9896 27.662C61.4461 26.9802 61.6898 26.1787 61.6898 25.3588C61.6978 24.8105 61.5952 24.2663 61.388 23.7584C61.1808 23.2505 60.8733 22.7893 60.4837 22.4023C60.0942 22.0154 59.6305 21.7105 59.1204 21.5059C58.6103 21.3012 58.0641 21.201 57.5143 21.2111H57.5197ZM57.5197 27.8732C57.0135 27.9099 56.508 27.7937 56.0689 27.5399C55.6299 27.286 55.2777 26.9061 55.0582 26.4498C54.8387 25.9935 54.7621 25.4818 54.8383 24.9815C54.9146 24.4811 55.1401 24.0153 55.4857 23.6446C55.8312 23.2739 56.2807 23.0155 56.7755 22.9032C57.2704 22.7908 57.7877 22.8297 58.2601 23.0147C58.7325 23.1996 59.1381 23.5222 59.4241 23.9403C59.71 24.3584 59.8631 24.8527 59.8633 25.3588C59.8778 25.6782 59.8281 25.9972 59.7173 26.2972C59.6064 26.5972 59.4366 26.8721 59.2178 27.1058C58.999 27.3395 58.7356 27.5273 58.4431 27.6581C58.1506 27.789 57.8348 27.8603 57.5143 27.8678L57.5197 27.8732ZM46.6849 22.5006V24.2574H50.9143C50.8535 25.0845 50.5135 25.8666 49.9499 26.4763C49.5275 26.907 49.0191 27.2444 48.4575 27.4665C47.896 27.6887 47.2939 27.7906 46.6903 27.7658C45.4457 27.7658 44.2521 27.2727 43.372 26.3951C42.492 25.5175 41.9976 24.3273 41.9976 23.0862C41.9976 21.8451 42.492 20.6548 43.372 19.7772C44.2521 18.8996 45.4457 18.4066 46.6903 18.4066C47.8766 18.3895 49.0214 18.8415 49.8745 19.6638L51.119 18.4227C50.5364 17.848 49.8446 17.3951 49.084 17.0906C48.3235 16.7862 47.5097 16.6363 46.6903 16.6498C44.9756 16.6498 43.3311 17.329 42.1186 18.5381C40.9061 19.7472 40.225 21.387 40.225 23.0969C40.225 24.8068 40.9061 26.4467 42.1186 27.6558C43.3311 28.8649 44.9756 29.5441 46.6903 29.5441C47.5272 29.5781 48.3618 29.4347 49.1391 29.1236C49.9164 28.8124 50.6188 28.3405 51.1998 27.7389C52.2276 26.6183 52.7749 25.1412 52.7246 23.6235C52.7272 23.263 52.6947 22.9031 52.6276 22.5489L46.6849 22.5006ZM90.9884 23.8652C90.7385 23.1139 90.2626 22.4576 89.6254 21.9856C88.9881 21.5136 88.2206 21.2488 87.4271 21.2272C85.272 21.2272 83.5048 22.9089 83.5048 25.3749C83.4924 25.9203 83.5905 26.4625 83.7931 26.9692C83.9957 27.4758 84.2987 27.9366 84.684 28.3238C85.0693 28.711 85.5289 29.0167 86.0354 29.2227C86.5419 29.4287 87.0849 29.5307 87.6318 29.5226C88.3168 29.5271 88.9922 29.3615 89.597 29.0407C90.2018 28.7199 90.717 28.2541 91.0962 27.6852L89.6792 26.745C89.4661 27.0958 89.1655 27.3856 88.8067 27.5861C88.4479 27.7867 88.0431 27.8911 87.6318 27.8893C87.2082 27.9056 86.7895 27.7945 86.4301 27.5702C86.0708 27.346 85.7874 27.0191 85.6168 26.6321L91.1716 24.338L90.9884 23.8652ZM85.3205 25.246C85.3008 24.9457 85.3411 24.6445 85.4391 24.3599C85.5371 24.0753 85.6908 23.8129 85.8913 23.588C86.0918 23.3631 86.3351 23.1801 86.607 23.0497C86.879 22.9193 87.1742 22.844 87.4756 22.8283C87.7906 22.8091 88.1045 22.8823 88.3783 23.0389C88.6521 23.1954 88.874 23.4285 89.0165 23.7094L85.3205 25.246ZM80.8002 29.2701H82.6266V17.0634H80.8002V29.2701ZM77.8046 22.1567H77.7453C77.468 21.8556 77.1294 21.6169 76.7522 21.4566C76.375 21.2963 75.9678 21.2181 75.5579 21.2272C74.4914 21.2814 73.4865 21.742 72.7508 22.5139C72.0151 23.2858 71.6049 24.31 71.6049 25.3749C71.6049 26.4398 72.0151 27.464 72.7508 28.2359C73.4865 29.0078 74.4914 29.4685 75.5579 29.5226C75.9689 29.5325 76.3772 29.4536 76.7548 29.2913C77.1324 29.129 77.4703 28.8872 77.7453 28.5824H77.8046V29.1734C77.8046 30.7852 76.9587 31.6072 75.5848 31.6072C75.1286 31.5962 74.6859 31.4504 74.3129 31.1883C73.9398 30.9263 73.653 30.5597 73.489 30.1351L71.8942 30.7852C72.1938 31.5132 72.7046 32.1354 73.3612 32.5719C74.0178 33.0085 74.7903 33.2394 75.5794 33.2351C77.7345 33.2351 79.534 31.9833 79.534 28.937V21.4583H77.7992L77.8046 22.1567ZM75.698 27.8678C75.0577 27.8261 74.4574 27.543 74.0187 27.0761C73.5801 26.6091 73.336 25.9933 73.336 25.3534C73.336 24.7136 73.5801 24.0978 74.0187 23.6308C74.4574 23.1639 75.0577 22.8808 75.698 22.839C76.9425 22.839 77.9177 23.9136 77.9177 25.3696C77.9177 26.8255 76.9479 27.8678 75.698 27.8678ZM99.5334 17.0634H95.1639V29.254H96.985V24.6389H99.5334C100.053 24.6727 100.573 24.5999 101.063 24.425C101.553 24.2501 102.002 23.9767 102.382 23.622C102.762 23.2672 103.064 22.8385 103.271 22.3623C103.478 21.8862 103.585 21.3728 103.585 20.8539C103.585 20.3349 103.478 19.8215 103.271 19.3454C103.064 18.8692 102.762 18.4405 102.382 18.0857C102.002 17.731 101.553 17.4576 101.063 17.2827C100.573 17.1078 100.053 17.035 99.5334 17.0688V17.0634ZM99.5819 22.9358H96.985V18.7558H99.5819C99.8571 18.7558 100.13 18.8099 100.384 18.9149C100.638 19.0199 100.869 19.1739 101.064 19.368C101.258 19.562 101.413 19.7924 101.518 20.046C101.624 20.2996 101.678 20.5713 101.678 20.8458C101.678 21.1202 101.624 21.392 101.518 21.6456C101.413 21.8992 101.258 22.1295 101.064 22.3236C100.869 22.5177 100.638 22.6716 100.384 22.7767C100.13 22.8817 99.8571 22.9358 99.5819 22.9358ZM110.858 21.1843C110.196 21.1498 109.537 21.3081 108.964 21.6401C108.39 21.972 107.925 22.4633 107.626 23.0539L109.242 23.7255C109.402 23.4304 109.644 23.1882 109.94 23.0288C110.236 22.8694 110.572 22.7997 110.907 22.8283C111.85 22.8283 112.809 23.3656 112.825 24.3971V24.5207C112.24 24.2086 111.587 24.0461 110.923 24.0479C109.177 24.0479 107.4 25.0042 107.4 26.7879C107.4 28.3997 108.833 29.4743 110.433 29.4743C110.892 29.5004 111.35 29.4036 111.759 29.1939C112.169 28.9842 112.514 28.6692 112.76 28.2815H112.82V29.2217H114.587V24.5475C114.581 22.3985 112.954 21.1843 110.869 21.1843H110.858ZM110.638 27.8678C110.04 27.8678 109.204 27.567 109.204 26.8309C109.204 25.8907 110.244 25.5307 111.144 25.5307C111.726 25.5149 112.301 25.656 112.809 25.9391C112.742 26.4673 112.487 26.9536 112.088 27.3082C111.69 27.6628 111.177 27.8616 110.643 27.8678H110.638ZM120.982 21.4529L118.892 26.7342H118.827L116.672 21.4529H114.705L117.938 28.8403L116.106 32.9342H118.008L123.024 21.4421L120.982 21.4529ZM104.549 29.2486H106.408V17.0634H104.587L104.549 29.2486Z" fill="white"/>
<path d="M20.258 18.9653L9.84342 29.9792C9.95447 30.3974 10.1612 30.7843 10.4474 31.1094C10.7336 31.4345 11.0915 31.689 11.4929 31.853C11.8944 32.017 12.3285 32.086 12.7611 32.0545C13.1938 32.023 13.6133 31.892 13.9866 31.6716H14.0189L25.7427 24.8752L20.258 18.9653Z" fill="#EB3131"/>
<path d="M30.7856 17.0636L25.7211 14.1301L20.0209 19.1912L25.7373 24.8754L30.7695 21.9795C31.2135 21.7377 31.5841 21.3811 31.8422 20.9472C32.1004 20.5133 32.2366 20.018 32.2366 19.5135C32.2366 19.009 32.1004 18.5138 31.8422 18.0798C31.5841 17.6459 31.2135 17.2893 30.7695 17.0475" fill="#F6B60B"/>
<path d="M9.84881 9.04762C9.78568 9.28246 9.75309 9.52442 9.75184 9.76755V29.238C9.75279 29.4811 9.78539 29.7231 9.84881 29.9579L20.6243 19.2126L9.84881 9.03687" fill="#5778C5"/>
<path d="M20.3334 19.5026L25.7211 14.13L14.0189 7.36048C13.645 7.13695 13.2241 7.00301 12.7894 6.9692C12.3547 6.93539 11.9181 7.00263 11.5139 7.16563C11.1097 7.32863 10.7489 7.58295 10.46 7.90856C10.1711 8.23418 9.96185 8.6222 9.84882 9.04212L20.3334 19.5026Z" fill="#3BAD49"/>
</g>
<defs>
<clipPath id="clip0_105_271">
<rect width="132" height="39" fill="white"/>
</clipPath>
</defs>
</svg>
