<svg width="66" height="65" viewBox="0 0 66 65" fill="none" xmlns="http://www.w3.org/2000/svg">
<path d="M32.9382 64.9999C50.8874 64.9999 65.4381 50.4492 65.4381 32.4999C65.4381 14.5507 50.8874 0 32.9382 0C14.989 0 0.438232 14.5507 0.438232 32.4999C0.438232 50.4492 14.989 64.9999 32.9382 64.9999Z" fill="url(#paint0_linear_105_101)"/>
<path d="M39.8156 15.3999H26.7375C23.8476 15.4004 21.0762 16.5486 19.0328 18.5921C16.9893 20.6355 15.8411 23.4069 15.8406 26.2967L15.8406 39.373C15.8411 42.2628 16.9893 45.0342 19.0328 47.0776C21.0762 49.1211 23.8476 50.2693 26.7375 50.2698H39.8137C42.7035 50.2693 45.4749 49.1211 47.5183 47.0776C49.5618 45.0342 50.71 42.2628 50.7105 39.373V26.2967C50.71 23.4072 49.562 20.6361 47.519 18.5928C45.476 16.5494 42.7051 15.4009 39.8156 15.3999V15.3999ZM47.4434 39.3749C47.4408 41.3971 46.6364 43.3358 45.2064 44.7657C43.7765 46.1957 41.8378 47.0001 39.8156 47.0027H26.7375C24.7159 46.9991 22.7782 46.1942 21.3491 44.7644C19.92 43.3346 19.1161 41.3965 19.1135 39.3749V26.2967C19.1171 24.2758 19.9215 22.3387 21.3504 20.9097C22.7794 19.4807 24.7166 18.6764 26.7375 18.6728H39.8137C41.8356 18.6748 43.7742 19.4785 45.2044 20.9077C46.6346 22.3369 47.4398 24.2748 47.4434 26.2967V39.3749Z" fill="white"/>
<path d="M33.2736 24.1155C31.5494 24.1155 29.864 24.6268 28.4304 25.5846C26.9968 26.5425 25.8795 27.904 25.2197 29.4969C24.5599 31.0898 24.3872 32.8426 24.7236 34.5336C25.06 36.2247 25.8902 37.778 27.1094 38.9971C28.3285 40.2163 29.8819 41.0466 31.5729 41.3829C33.2639 41.7193 35.0167 41.5466 36.6096 40.8868C38.2025 40.227 39.564 39.1097 40.5219 37.6761C41.4798 36.2425 41.991 34.5571 41.991 32.833C41.991 30.5209 41.0726 28.3036 39.4378 26.6688C37.8029 25.0339 35.5856 24.1155 33.2736 24.1155ZM33.2736 38.2814C32.196 38.2814 31.1426 37.9618 30.2466 37.3631C29.3506 36.7645 28.6523 35.9135 28.2399 34.918C27.8275 33.9224 27.7196 32.8269 27.9298 31.77C28.1401 30.7131 28.659 29.7423 29.4209 28.9803C30.1829 28.2184 31.1537 27.6995 32.2106 27.4892C33.2675 27.279 34.363 27.3869 35.3586 27.7993C36.3542 28.2116 37.2051 28.91 37.8038 29.806C38.4024 30.702 38.722 31.7554 38.722 32.833C38.72 34.2773 38.1453 35.662 37.1239 36.6833C36.1026 37.7046 34.718 38.2793 33.2736 38.2814Z" fill="white"/>
<path d="M42.647 24.6273C43.2882 24.6273 43.808 24.1075 43.808 23.4663C43.808 22.8252 43.2882 22.3054 42.647 22.3054C42.0059 22.3054 41.4861 22.8252 41.4861 23.4663C41.4861 24.1075 42.0059 24.6273 42.647 24.6273Z" fill="white"/>
<defs>
<linearGradient id="paint0_linear_105_101" x1="5.70322" y1="8.25498" x2="65.4381" y2="68.3149" gradientUnits="userSpaceOnUse">
<stop stop-color="#FFC107"/>
<stop offset="0.507" stop-color="#F44336"/>
<stop offset="0.99" stop-color="#9C27B0"/>
</linearGradient>
</defs>
</svg>
