<svg width="94" height="94" viewBox="0 0 94 94" fill="none" xmlns="http://www.w3.org/2000/svg">
<circle cx="47" cy="47" r="47" fill="#1A1A1B"/>
<path d="M28.7671 26.6675C28.2877 27.171 28 27.9622 28 28.9691V65.2429C28 66.2498 28.2877 67.041 28.7671 67.5445L28.8869 67.6643L49.2145 47.3338V46.8543L28.8869 26.5237L28.7671 26.6675Z" fill="url(#paint0_linear_105_144)"/>
<path d="M55.9772 54.1188L49.2173 47.3339V46.8544L56.0011 40.0696L56.145 40.1655L64.1753 44.7207C66.4765 46.0153 66.4765 48.1491 64.1753 49.4677L56.145 54.0229L55.9772 54.1188Z" fill="url(#paint1_linear_105_144)"/>
<path d="M56.1422 54.0222L49.2145 47.0935L28.7671 67.544C29.5102 68.3351 30.7807 68.455 32.171 67.6399L56.1422 54.0222Z" fill="url(#paint2_linear_105_144)"/>
<path d="M56.1422 40.1897L32.171 26.572C30.7567 25.7808 29.5102 25.8767 28.7671 26.6679L49.2145 47.1184L56.1422 40.1897Z" fill="url(#paint3_linear_105_144)"/>
<path opacity="0.2" d="M55.9744 53.8784L32.171 67.4002C30.8286 68.1674 29.654 68.1194 28.8869 67.4241L28.7671 67.544L28.8869 67.6639C29.654 68.3592 30.8526 68.4071 32.171 67.6399L56.1422 54.0223L55.9744 53.8784Z" fill="black"/>
<path opacity="0.12" d="M28.7671 67.3052C28.2877 66.8017 28 66.0106 28 65.0036V65.2434C28 66.2503 28.2877 67.0415 28.7671 67.5449L28.8869 67.4251L28.7671 67.3052ZM64.1485 49.2282L55.9743 53.8793L56.1182 54.0232L64.1485 49.468C65.2991 48.8207 65.8744 47.9576 65.8744 47.0945C65.7786 47.8856 65.2032 48.6289 64.1485 49.2282Z" fill="black"/>
<path opacity="0.25" d="M32.171 26.7878L64.1485 44.9606C65.1793 45.56 65.7786 46.3032 65.8744 47.0944C65.8744 46.2313 65.2991 45.3682 64.1485 44.7209L32.171 26.548C29.8697 25.2534 28 26.3322 28 28.9455V29.1852C28 26.572 29.8697 25.4931 32.171 26.7878Z" fill="white"/>
<defs>
<linearGradient id="paint0_linear_105_144" x1="47.3917" y1="28.5745" x2="19.8598" y2="56.1022" gradientUnits="userSpaceOnUse">
<stop stop-color="#00A0FF"/>
<stop offset="0.007" stop-color="#00A1FF"/>
<stop offset="0.26" stop-color="#00BEFF"/>
<stop offset="0.512" stop-color="#00D2FF"/>
<stop offset="0.76" stop-color="#00DFFF"/>
<stop offset="1" stop-color="#00E3FF"/>
</linearGradient>
<linearGradient id="paint1_linear_105_144" x1="67.1424" y1="47.1062" x2="27.4531" y2="47.1062" gradientUnits="userSpaceOnUse">
<stop stop-color="#FFE000"/>
<stop offset="0.409" stop-color="#FFBD00"/>
<stop offset="0.775" stop-color="#FFA500"/>
<stop offset="1" stop-color="#FF9C00"/>
</linearGradient>
<linearGradient id="paint2_linear_105_144" x1="52.3713" y1="50.877" x2="15.0361" y2="88.2065" gradientUnits="userSpaceOnUse">
<stop stop-color="#FF3A44"/>
<stop offset="1" stop-color="#C31162"/>
</linearGradient>
<linearGradient id="paint3_linear_105_144" x1="23.6181" y1="14.5775" x2="40.2899" y2="31.2468" gradientUnits="userSpaceOnUse">
<stop stop-color="#32A071"/>
<stop offset="0.069" stop-color="#2DA771"/>
<stop offset="0.476" stop-color="#15CF74"/>
<stop offset="0.801" stop-color="#06E775"/>
<stop offset="1" stop-color="#00F076"/>
</linearGradient>
</defs>
</svg>
